<?xml version="1.0" encoding="UTF-8"?>
<!DOCTYPE svg PUBLIC "-//W3C//DTD SVG 1.1//EN" "http://www.w3.org/Graphics/SVG/1.1/DTD/svg11.dtd">
<svg xmlns="http://www.w3.org/2000/svg" version="1.1" width="642px" height="642px" style="shape-rendering:geometricPrecision; text-rendering:geometricPrecision; image-rendering:optimizeQuality; fill-rule:evenodd; clip-rule:evenodd" xmlns:xlink="http://www.w3.org/1999/xlink">
<g><path style="opacity:0.983" fill="#fbdd5f" d="M 146.5,-0.5 C 262.5,-0.5 378.5,-0.5 494.5,-0.5C 516.679,0.956582 538.346,5.45658 559.5,13C 603.021,33.7051 629.021,67.8718 637.5,115.5C 636.761,115.369 636.094,115.536 635.5,116C 636.696,116.654 636.696,117.154 635.5,117.5C 634.029,116.583 632.529,115.583 631,114.5C 629.84,116.797 628.84,116.464 628,113.5C 627.751,114.624 627.251,115.624 626.5,116.5C 624.058,116.718 621.558,116.718 619,116.5C 617.989,116.892 617.489,117.559 617.5,118.5C 615.729,117.965 615.396,117.131 616.5,116C 615.551,115.383 614.718,115.549 614,116.5C 613.901,114.347 613.067,112.681 611.5,111.5C 611.737,110.209 611.404,109.209 610.5,108.5C 600.841,75.0015 580.174,50.8348 548.5,36C 534.054,30.2439 519.054,26.9105 503.5,26C 493.164,25.3748 482.831,24.7082 472.5,24C 369.5,23.3333 266.5,23.3333 163.5,24C 142.479,24.0508 121.813,26.7175 101.5,32C 65.991,45.0067 42.6576,69.5067 31.5,105.5C 29.9149,109.761 28.5816,114.095 27.5,118.5C 26.9181,117.069 26.0848,115.736 25,114.5C 24.6667,115.167 24.3333,115.833 24,116.5C 20.1639,114.144 16.6639,114.144 13.5,116.5C 12.1667,115.833 10.8333,115.167 9.5,114.5C 8.74917,115.376 8.24917,116.376 8,117.5C 7.33333,116.167 6.66667,116.167 6,117.5C 5.6582,115.381 4.82487,115.047 3.5,116.5C 9.90871,75.8117 30.242,44.3117 64.5,22C 80.8865,12.1515 98.5532,5.81816 117.5,3C 127.273,1.45652 136.94,0.28985 146.5,-0.5 Z"/></g>
<g><path style="opacity:1" fill="#4c0161" d="M 610.5,108.5 C 610.833,112.323 609.166,113.823 605.5,113C 606.765,111.663 607.265,110.163 607,108.5C 606.333,109.833 605.667,109.833 605,108.5C 605.148,109.825 604.982,110.992 604.5,112C 602.687,112.614 602.353,112.281 603.5,111C 601.983,109.221 601.149,109.721 601,112.5C 599.594,111.332 598.428,111.665 597.5,113.5C 594.833,112.5 594.833,111.5 597.5,110.5C 596.483,107.972 595.316,107.972 594,110.5C 592.951,109.483 591.784,109.316 590.5,110C 591.696,110.654 591.696,111.154 590.5,111.5C 589.167,110.5 587.833,109.5 586.5,108.5C 584.292,108.806 582.792,109.806 582,111.5C 579.257,108.698 576.923,109.031 575,112.5C 574.606,110.045 573.44,108.045 571.5,106.5C 570.246,108.259 570.579,109.759 572.5,111C 569.914,112.261 567.414,112.428 565,111.5C 564.667,112.5 564.333,113.5 564,114.5C 563.735,112.349 562.735,110.682 561,109.5C 559.989,109.892 559.489,110.559 559.5,111.5C 558.808,110.975 558.308,110.308 558,109.5C 556.568,114.222 554.568,114.222 552,109.5C 551.667,110.5 551.333,111.5 551,112.5C 550.781,111.062 550.281,109.729 549.5,108.5C 548.205,109.098 546.872,109.598 545.5,110C 546.672,110.419 547.672,111.085 548.5,112C 545.174,111.833 542.507,110.333 540.5,107.5C 540.167,107.833 539.833,108.167 539.5,108.5C 541.04,109.532 541.54,110.865 541,112.5C 540.29,111.027 539.124,110.36 537.5,110.5C 537.719,111.675 537.386,112.675 536.5,113.5C 535.268,112.855 533.935,112.689 532.5,113C 530.926,111.174 530.093,109.007 530,106.5C 529.667,108.167 529.333,109.833 529,111.5C 528.193,107.551 527.693,107.551 527.5,111.5C 525.897,111.688 524.563,111.188 523.5,110C 524.167,109.667 524.833,109.333 525.5,109C 523.865,108.46 522.532,108.96 521.5,110.5C 520.186,109.687 519.019,108.687 518,107.5C 517.383,108.449 517.549,109.282 518.5,110C 517.256,110.456 516.423,109.956 516,108.5C 515.667,110.167 515.333,111.833 515,113.5C 512.654,112.35 510.487,110.35 508.5,107.5C 508.167,107.667 507.833,107.833 507.5,108C 511.728,112.299 511.394,113.133 506.5,110.5C 505.459,112.991 504.626,112.991 504,110.5C 503.25,111.126 502.416,111.626 501.5,112C 501.833,112.333 502.167,112.667 502.5,113C 501.256,113.456 500.423,112.956 500,111.5C 498.15,113.962 496.983,113.462 496.5,110C 495.551,109.383 494.718,109.549 494,110.5C 494,109.167 494,107.833 494,106.5C 493.333,107.833 492.667,107.833 492,106.5C 491.383,107.449 491.549,108.282 492.5,109C 491.833,109.333 491.167,109.667 490.5,110C 493.521,110.849 494.021,112.349 492,114.5C 491.019,111.345 489.685,111.012 488,113.5C 486.233,112.183 484.899,110.516 484,108.5C 483.647,109.672 483.813,110.838 484.5,112C 484.37,113.059 483.87,113.892 483,114.5C 482.682,112.939 481.849,111.772 480.5,111C 483,110.167 483.167,109 481,107.5C 479.46,111.574 478.127,111.907 477,108.5C 476.667,109.5 476.333,110.5 476,111.5C 475.667,111.167 475.333,110.833 475,110.5C 474.667,111.5 474.333,112.5 474,113.5C 473,113.833 472,114.167 471,114.5C 469.329,112.724 467.496,112.39 465.5,113.5C 465.167,113.167 464.833,112.833 464.5,112.5C 465.376,111.749 466.376,111.249 467.5,111C 466.234,110.691 465.067,110.191 464,109.5C 463.667,109.833 463.333,110.167 463,110.5C 461.348,109.932 459.682,108.599 458,106.5C 457.085,107.328 456.419,108.328 456,109.5C 454.94,109.746 453.773,109.746 452.5,109.5C 451.289,110.274 451.289,111.107 452.5,112C 451.975,112.692 451.308,113.192 450.5,113.5C 450.574,111.688 450.241,109.688 449.5,107.5C 447.766,109.234 446.432,111.234 445.5,113.5C 445.891,112.109 445.058,111.109 443,110.5C 442.667,111.167 442.333,111.833 442,112.5C 441.685,109.853 440.518,109.187 438.5,110.5C 437.808,109.975 437.308,109.308 437,108.5C 435.148,110.23 435.314,111.396 437.5,112C 434.31,115.156 433.31,114.489 434.5,110C 434.167,109.833 433.833,109.667 433.5,109.5C 432.506,113.481 431.506,113.481 430.5,109.5C 429.667,109.167 428.833,108.833 428,108.5C 425.116,109.242 422.616,110.575 420.5,112.5C 419.558,112.392 418.725,112.059 418,111.5C 417.667,110.167 417.333,108.833 417,107.5C 416.221,110.314 414.888,111.98 413,112.5C 410.488,111.614 407.821,110.28 405,108.5C 404.813,110.345 403.98,112.011 402.5,113.5C 401.522,113.023 400.689,112.357 400,111.5C 398.951,112.517 397.784,112.684 396.5,112C 397.15,110.391 396.65,108.891 395,107.5C 394.692,108.308 394.192,108.975 393.5,109.5C 392.583,108.873 391.583,108.539 390.5,108.5C 373.843,66.6626 343.176,50.1626 298.5,59C 272.854,68.4721 256.521,86.3054 249.5,112.5C 246.875,111.559 246.875,110.393 249.5,109C 249.167,108.833 248.833,108.667 248.5,108.5C 245.858,111.053 242.858,111.72 239.5,110.5C 240.46,109.188 240.294,107.854 239,106.5C 238.667,107.833 238.333,109.167 238,110.5C 237.667,110.167 237.333,109.833 237,109.5C 236.228,110.849 235.061,111.682 233.5,112C 233.833,112.333 234.167,112.667 234.5,113C 233.5,113.667 232.5,113.667 231.5,113C 231.908,110.139 231.075,109.972 229,112.5C 226.667,109.5 225,109.833 224,113.5C 221.457,112.124 221.291,110.957 223.5,110C 222.789,108.745 221.956,107.579 221,106.5C 221.148,107.825 220.982,108.992 220.5,110C 219.551,110.617 218.718,110.451 218,109.5C 216.783,110.386 215.449,111.386 214,112.5C 212.721,110.063 211.221,109.563 209.5,111C 210.167,111.333 210.833,111.667 211.5,112C 209.08,112.687 206.913,112.187 205,110.5C 203.718,114.671 201.551,115.338 198.5,112.5C 197.808,113.025 197.308,113.692 197,114.5C 196.667,112.833 196.333,111.167 196,109.5C 195.667,110.5 195.333,111.5 195,112.5C 194.667,112.167 194.333,111.833 194,111.5C 192.981,112.687 191.814,113.687 190.5,114.5C 187.89,112.813 188.223,111.479 191.5,110.5C 190.047,110.94 188.881,110.274 188,108.5C 187.751,109.624 187.251,110.624 186.5,111.5C 185.28,110.289 184.113,110.289 183,111.5C 181.582,109.637 179.749,109.137 177.5,110C 178.696,110.654 178.696,111.154 177.5,111.5C 176.416,110.335 175.583,109.002 175,107.5C 174.075,108.047 173.242,108.713 172.5,109.5C 173.326,110.451 173.492,111.451 173,112.5C 171.956,111.377 171.29,110.044 171,108.5C 168.165,111.558 165.165,111.891 162,109.5C 161.085,110.328 160.419,111.328 160,112.5C 159.32,106.222 157.153,105.388 153.5,110C 159.898,109.146 160.064,109.979 154,112.5C 152.351,111.102 151.018,111.436 150,113.5C 149,112.167 148,110.833 147,109.5C 146.667,110.167 146.333,110.833 146,111.5C 145.915,109.915 145.749,108.582 145.5,107.5C 144.205,109.328 143.205,111.328 142.5,113.5C 140.997,112.41 140.664,111.243 141.5,110C 140.234,109.691 139.067,109.191 138,108.5C 137.316,109.784 137.483,110.951 138.5,112C 136.109,112.287 133.776,112.787 131.5,113.5C 130.719,112.271 130.219,110.938 130,109.5C 129.781,110.938 129.281,112.271 128.5,113.5C 128.36,112.431 128.36,111.264 128.5,110C 124.021,105.486 123.188,105.986 126,111.5C 126.667,112.5 126.667,113.5 126,114.5C 125.333,113.167 124.667,113.167 124,114.5C 123.027,112.608 122.36,110.608 122,108.5C 121.333,109.833 120.667,111.167 120,112.5C 119.097,111.299 117.931,110.465 116.5,110C 118.901,109.195 118.734,108.362 116,107.5C 111.564,110.139 107.064,112.472 102.5,114.5C 102.157,111.418 100.657,108.751 98,106.5C 97.2881,108.847 96.1214,110.847 94.5,112.5C 93.4164,111.335 92.5831,110.002 92,108.5C 91.0853,109.328 90.4186,110.328 90,111.5C 87.1845,112.13 84.5178,111.464 82,109.5C 79.9964,113.58 77.3298,114.246 74,111.5C 73.586,111.957 73.086,112.291 72.5,112.5C 71.323,109.684 69.6563,110.017 67.5,113.5C 67.7036,112.471 67.2036,111.471 66,110.5C 65.0255,112.878 64.3589,112.544 64,109.5C 63,110.5 62,111.5 61,112.5C 60.3828,111.551 60.5494,110.718 61.5,110C 58.3465,108.383 55.8465,109.217 54,112.5C 51.3843,111.347 48.7176,110.347 46,109.5C 45.3333,110.833 44.3333,111.833 43,112.5C 42.9024,110.381 42.0691,108.714 40.5,107.5C 39.2612,109.007 39.5946,110.174 41.5,111C 40.2161,111.684 39.0495,111.517 38,110.5C 37.1495,113.612 35.9828,113.946 34.5,111.5C 34.6869,112.817 34.0202,114.15 32.5,115.5C 32.3601,114.431 32.3601,113.264 32.5,112C 31.8333,111.667 31.1667,111.333 30.5,111C 31.4061,109.301 31.7394,107.467 31.5,105.5C 42.6576,69.5067 65.991,45.0067 101.5,32C 121.813,26.7175 142.479,24.0508 163.5,24C 266.5,23.3333 369.5,23.3333 472.5,24C 482.831,24.7082 493.164,25.3748 503.5,26C 519.054,26.9105 534.054,30.2439 548.5,36C 580.174,50.8348 600.841,75.0015 610.5,108.5 Z"/></g>
<g><path style="opacity:1" fill="#32cafd" d="M 390.5,108.5 C 395.777,132.968 390.777,154.968 375.5,174.5C 352.707,198.809 325.374,205.642 293.5,195C 275.681,187.344 262.681,174.844 254.5,157.5C 248.682,143.003 247.015,128.003 249.5,112.5C 256.521,86.3054 272.854,68.4721 298.5,59C 343.176,50.1626 373.843,66.6626 390.5,108.5 Z"/></g>
<g><path style="opacity:1" fill="#46005a" d="M 31.5,105.5 C 31.7394,107.467 31.4061,109.301 30.5,111C 31.1667,111.333 31.8333,111.667 32.5,112C 32.3601,113.264 32.3601,114.431 32.5,115.5C 34.0202,114.15 34.6869,112.817 34.5,111.5C 35.9828,113.946 37.1495,113.612 38,110.5C 39.0495,111.517 40.2161,111.684 41.5,111C 39.5946,110.174 39.2612,109.007 40.5,107.5C 42.0691,108.714 42.9024,110.381 43,112.5C 44.3333,111.833 45.3333,110.833 46,109.5C 48.7176,110.347 51.3843,111.347 54,112.5C 55.8465,109.217 58.3465,108.383 61.5,110C 60.5494,110.718 60.3828,111.551 61,112.5C 62,111.5 63,110.5 64,109.5C 64.3589,112.544 65.0255,112.878 66,110.5C 67.2036,111.471 67.7036,112.471 67.5,113.5C 69.6563,110.017 71.323,109.684 72.5,112.5C 73.086,112.291 73.586,111.957 74,111.5C 77.3298,114.246 79.9964,113.58 82,109.5C 84.5178,111.464 87.1845,112.13 90,111.5C 90.4186,110.328 91.0853,109.328 92,108.5C 92.5831,110.002 93.4164,111.335 94.5,112.5C 96.1214,110.847 97.2881,108.847 98,106.5C 100.657,108.751 102.157,111.418 102.5,114.5C 107.064,112.472 111.564,110.139 116,107.5C 118.734,108.362 118.901,109.195 116.5,110C 117.931,110.465 119.097,111.299 120,112.5C 120.667,111.167 121.333,109.833 122,108.5C 122.36,110.608 123.027,112.608 124,114.5C 124.667,113.167 125.333,113.167 126,114.5C 126.667,113.5 126.667,112.5 126,111.5C 123.188,105.986 124.021,105.486 128.5,110C 128.36,111.264 128.36,112.431 128.5,113.5C 129.281,112.271 129.781,110.938 130,109.5C 130.219,110.938 130.719,112.271 131.5,113.5C 133.776,112.787 136.109,112.287 138.5,112C 137.483,110.951 137.316,109.784 138,108.5C 139.067,109.191 140.234,109.691 141.5,110C 140.664,111.243 140.997,112.41 142.5,113.5C 143.205,111.328 144.205,109.328 145.5,107.5C 145.749,108.582 145.915,109.915 146,111.5C 146.333,110.833 146.667,110.167 147,109.5C 148,110.833 149,112.167 150,113.5C 151.018,111.436 152.351,111.102 154,112.5C 160.064,109.979 159.898,109.146 153.5,110C 157.153,105.388 159.32,106.222 160,112.5C 160.419,111.328 161.085,110.328 162,109.5C 165.165,111.891 168.165,111.558 171,108.5C 171.29,110.044 171.956,111.377 173,112.5C 173.492,111.451 173.326,110.451 172.5,109.5C 173.242,108.713 174.075,108.047 175,107.5C 175.583,109.002 176.416,110.335 177.5,111.5C 178.696,111.154 178.696,110.654 177.5,110C 179.749,109.137 181.582,109.637 183,111.5C 184.113,110.289 185.28,110.289 186.5,111.5C 187.251,110.624 187.751,109.624 188,108.5C 188.881,110.274 190.047,110.94 191.5,110.5C 188.223,111.479 187.89,112.813 190.5,114.5C 191.814,113.687 192.981,112.687 194,111.5C 194.333,111.833 194.667,112.167 195,112.5C 195.333,111.5 195.667,110.5 196,109.5C 196.333,111.167 196.667,112.833 197,114.5C 197.308,113.692 197.808,113.025 198.5,112.5C 201.551,115.338 203.718,114.671 205,110.5C 206.913,112.187 209.08,112.687 211.5,112C 210.833,111.667 210.167,111.333 209.5,111C 211.221,109.563 212.721,110.063 214,112.5C 215.449,111.386 216.783,110.386 218,109.5C 218.718,110.451 219.551,110.617 220.5,110C 220.982,108.992 221.148,107.825 221,106.5C 221.956,107.579 222.789,108.745 223.5,110C 221.291,110.957 221.457,112.124 224,113.5C 225,109.833 226.667,109.5 229,112.5C 231.075,109.972 231.908,110.139 231.5,113C 232.5,113.667 233.5,113.667 234.5,113C 234.167,112.667 233.833,112.333 233.5,112C 235.061,111.682 236.228,110.849 237,109.5C 237.333,109.833 237.667,110.167 238,110.5C 238.333,109.167 238.667,107.833 239,106.5C 240.294,107.854 240.46,109.188 239.5,110.5C 242.858,111.72 245.858,111.053 248.5,108.5C 248.833,108.667 249.167,108.833 249.5,109C 246.875,110.393 246.875,111.559 249.5,112.5C 247.015,128.003 248.682,143.003 254.5,157.5C 254.709,159.714 253.876,161.381 252,162.5C 249.457,161.64 247.624,159.974 246.5,157.5C 245.575,158.641 244.741,158.641 244,157.5C 243.085,158.328 242.419,159.328 242,160.5C 241.309,158.109 240.309,158.109 239,160.5C 237.209,158.487 235.875,158.487 235,160.5C 234.388,157.968 232.888,157.135 230.5,158C 231.672,158.419 232.672,159.085 233.5,160C 230.607,160.453 227.607,160.453 224.5,160C 224.018,161.008 223.852,162.175 224,163.5C 222.992,163.018 221.825,162.852 220.5,163C 221.131,161.232 220.298,160.065 218,159.5C 216.779,160.272 215.779,161.272 215,162.5C 214.692,161.692 214.192,161.025 213.5,160.5C 212.742,161.811 211.742,162.311 210.5,162C 211.451,161.282 211.617,160.449 211,159.5C 210.085,160.328 209.419,161.328 209,162.5C 208.333,157.167 207.667,157.167 207,162.5C 206.667,161.833 206.333,161.167 206,160.5C 205.311,161.357 204.478,162.023 203.5,162.5C 200.933,162.222 198.267,162.056 195.5,162C 193.736,160.331 191.736,159.164 189.5,158.5C 188.818,159.243 188.151,159.909 187.5,160.5C 156.78,146.423 128.78,150.423 103.5,172.5C 100.461,172.353 97.4612,172.353 94.5,172.5C 94.7036,171.471 94.2036,170.471 93,169.5C 91.0036,169.996 89.3369,170.996 88,172.5C 87.6924,171.692 87.1924,171.025 86.5,170.5C 82.5352,174.166 79.0352,173.5 76,168.5C 74.8289,169.893 73.3289,170.727 71.5,171C 72.4506,171.718 72.6172,172.551 72,173.5C 71.1627,171.993 69.9961,171.493 68.5,172C 69.6537,172.914 69.487,173.747 68,174.5C 67.0168,172.429 66.3501,170.429 66,168.5C 65.3333,169.167 64.6667,169.833 64,170.5C 63.2825,169.549 62.4491,169.383 61.5,170C 62.4506,170.718 62.6172,171.551 62,172.5C 60.6667,171.833 59.6667,170.833 59,169.5C 58,170.5 57,171.5 56,172.5C 55.4807,169.508 53.9807,168.508 51.5,169.5C 52.5,170.167 53.5,170.833 54.5,171.5C 53.4179,171.749 52.0846,171.915 50.5,172C 51.5171,173.049 51.6838,174.216 51,175.5C 49.6012,174.773 48.1012,174.273 46.5,174C 49.9926,172.912 50.1592,171.745 47,170.5C 45.9335,172.283 44.4335,172.783 42.5,172C 42.0698,171.08 41.7365,170.247 41.5,169.5C 39.9579,170.747 38.4579,170.747 37,169.5C 36.5439,170.744 37.0439,171.577 38.5,172C 35.0927,174.861 31.5927,174.695 28,171.5C 27.6924,172.308 27.1924,172.975 26.5,173.5C 25.5027,166.197 25.1694,158.863 25.5,151.5C 25.3277,140.439 25.9944,129.439 27.5,118.5C 28.5816,114.095 29.9149,109.761 31.5,105.5 Z"/></g>
<g><path style="opacity:1" fill="#46005b" d="M 610.5,108.5 C 611.404,109.209 611.737,110.209 611.5,111.5C 614.578,124.64 615.911,137.974 615.5,151.5C 615.5,158.5 615.5,165.5 615.5,172.5C 614.127,172.657 612.793,172.49 611.5,172C 612.833,171.333 612.833,170.667 611.5,170C 613.595,169.444 613.762,168.944 612,168.5C 610.107,169.196 608.274,170.03 606.5,171C 607.451,171.718 607.617,172.551 607,173.5C 606.333,172.167 605.667,172.167 605,173.5C 604.667,172.833 604.333,172.167 604,171.5C 602.47,172.636 601.137,173.636 600,174.5C 598.187,169.691 595.854,168.691 593,171.5C 591.957,175.226 591.457,174.893 591.5,170.5C 590.07,170.579 588.736,170.246 587.5,169.5C 586.41,170.391 586.41,171.391 587.5,172.5C 586.5,173.833 585.5,173.833 584.5,172.5C 584.709,171.914 585.043,171.414 585.5,171C 584.354,170.355 583.354,169.522 582.5,168.5C 580.383,170.724 577.883,172.391 575,173.5C 573.883,172.051 573.216,170.384 573,168.5C 572.784,170.384 572.117,172.051 571,173.5C 569.546,166.639 568.046,166.306 566.5,172.5C 566.167,171.833 565.833,171.167 565.5,170.5C 563.725,171.629 562.058,172.629 560.5,173.5C 559.702,171.922 559.202,170.256 559,168.5C 558.667,169.833 558.333,171.167 558,172.5C 557.667,171.833 557.333,171.167 557,170.5C 556.333,171.833 555.667,171.833 555,170.5C 553.783,171.386 552.449,172.386 551,173.5C 550.612,172.572 549.945,171.905 549,171.5C 546.867,170.647 544.867,170.314 543,170.5C 542.383,171.449 542.549,172.282 543.5,173C 542.5,173.333 541.5,173.667 540.5,174C 541.823,174.816 542.489,175.983 542.5,177.5C 515.025,150.366 484.025,145.532 449.5,163C 445.108,166.185 440.774,169.352 436.5,172.5C 435.235,171.521 433.901,170.521 432.5,169.5C 430.508,174.007 427.842,174.507 424.5,171C 425.451,170.282 425.617,169.449 425,168.5C 422.645,170.825 420.145,172.158 417.5,172.5C 416.304,172.154 416.304,171.654 417.5,171C 416.5,170.333 415.5,170.333 414.5,171C 415.517,172.049 415.684,173.216 415,174.5C 411.003,172.1 407.669,172.433 405,175.5C 404.077,174.241 403.243,172.908 402.5,171.5C 400.899,170.835 399.399,170.501 398,170.5C 397.667,171.167 397.333,171.833 397,172.5C 395.116,171.023 393.116,169.69 391,168.5C 388.457,169.876 388.291,171.043 390.5,172C 388.345,173.357 386.178,173.524 384,172.5C 382.739,172.759 381.739,173.426 381,174.5C 380.692,173.692 380.192,173.025 379.5,172.5C 378.378,173.63 377.044,174.297 375.5,174.5C 390.777,154.968 395.777,132.968 390.5,108.5C 391.583,108.539 392.583,108.873 393.5,109.5C 394.192,108.975 394.692,108.308 395,107.5C 396.65,108.891 397.15,110.391 396.5,112C 397.784,112.684 398.951,112.517 400,111.5C 400.689,112.357 401.522,113.023 402.5,113.5C 403.98,112.011 404.813,110.345 405,108.5C 407.821,110.28 410.488,111.614 413,112.5C 414.888,111.98 416.221,110.314 417,107.5C 417.333,108.833 417.667,110.167 418,111.5C 418.725,112.059 419.558,112.392 420.5,112.5C 422.616,110.575 425.116,109.242 428,108.5C 428.833,108.833 429.667,109.167 430.5,109.5C 431.506,113.481 432.506,113.481 433.5,109.5C 433.833,109.667 434.167,109.833 434.5,110C 433.31,114.489 434.31,115.156 437.5,112C 435.314,111.396 435.148,110.23 437,108.5C 437.308,109.308 437.808,109.975 438.5,110.5C 440.518,109.187 441.685,109.853 442,112.5C 442.333,111.833 442.667,111.167 443,110.5C 445.058,111.109 445.891,112.109 445.5,113.5C 446.432,111.234 447.766,109.234 449.5,107.5C 450.241,109.688 450.574,111.688 450.5,113.5C 451.308,113.192 451.975,112.692 452.5,112C 451.289,111.107 451.289,110.274 452.5,109.5C 453.773,109.746 454.94,109.746 456,109.5C 456.419,108.328 457.085,107.328 458,106.5C 459.682,108.599 461.348,109.932 463,110.5C 463.333,110.167 463.667,109.833 464,109.5C 465.067,110.191 466.234,110.691 467.5,111C 466.376,111.249 465.376,111.749 464.5,112.5C 464.833,112.833 465.167,113.167 465.5,113.5C 467.496,112.39 469.329,112.724 471,114.5C 472,114.167 473,113.833 474,113.5C 474.333,112.5 474.667,111.5 475,110.5C 475.333,110.833 475.667,111.167 476,111.5C 476.333,110.5 476.667,109.5 477,108.5C 478.127,111.907 479.46,111.574 481,107.5C 483.167,109 483,110.167 480.5,111C 481.849,111.772 482.682,112.939 483,114.5C 483.87,113.892 484.37,113.059 484.5,112C 483.813,110.838 483.647,109.672 484,108.5C 484.899,110.516 486.233,112.183 488,113.5C 489.685,111.012 491.019,111.345 492,114.5C 494.021,112.349 493.521,110.849 490.5,110C 491.167,109.667 491.833,109.333 492.5,109C 491.549,108.282 491.383,107.449 492,106.5C 492.667,107.833 493.333,107.833 494,106.5C 494,107.833 494,109.167 494,110.5C 494.718,109.549 495.551,109.383 496.5,110C 496.983,113.462 498.15,113.962 500,111.5C 500.423,112.956 501.256,113.456 502.5,113C 502.167,112.667 501.833,112.333 501.5,112C 502.416,111.626 503.25,111.126 504,110.5C 504.626,112.991 505.459,112.991 506.5,110.5C 511.394,113.133 511.728,112.299 507.5,108C 507.833,107.833 508.167,107.667 508.5,107.5C 510.487,110.35 512.654,112.35 515,113.5C 515.333,111.833 515.667,110.167 516,108.5C 516.423,109.956 517.256,110.456 518.5,110C 517.549,109.282 517.383,108.449 518,107.5C 519.019,108.687 520.186,109.687 521.5,110.5C 522.532,108.96 523.865,108.46 525.5,109C 524.833,109.333 524.167,109.667 523.5,110C 524.563,111.188 525.897,111.688 527.5,111.5C 527.693,107.551 528.193,107.551 529,111.5C 529.333,109.833 529.667,108.167 530,106.5C 530.093,109.007 530.926,111.174 532.5,113C 533.935,112.689 535.268,112.855 536.5,113.5C 537.386,112.675 537.719,111.675 537.5,110.5C 539.124,110.36 540.29,111.027 541,112.5C 541.54,110.865 541.04,109.532 539.5,108.5C 539.833,108.167 540.167,107.833 540.5,107.5C 542.507,110.333 545.174,111.833 548.5,112C 547.672,111.085 546.672,110.419 545.5,110C 546.872,109.598 548.205,109.098 549.5,108.5C 550.281,109.729 550.781,111.062 551,112.5C 551.333,111.5 551.667,110.5 552,109.5C 554.568,114.222 556.568,114.222 558,109.5C 558.308,110.308 558.808,110.975 559.5,111.5C 559.489,110.559 559.989,109.892 561,109.5C 562.735,110.682 563.735,112.349 564,114.5C 564.333,113.5 564.667,112.5 565,111.5C 567.414,112.428 569.914,112.261 572.5,111C 570.579,109.759 570.246,108.259 571.5,106.5C 573.44,108.045 574.606,110.045 575,112.5C 576.923,109.031 579.257,108.698 582,111.5C 582.792,109.806 584.292,108.806 586.5,108.5C 587.833,109.5 589.167,110.5 590.5,111.5C 591.696,111.154 591.696,110.654 590.5,110C 591.784,109.316 592.951,109.483 594,110.5C 595.316,107.972 596.483,107.972 597.5,110.5C 594.833,111.5 594.833,112.5 597.5,113.5C 598.428,111.665 599.594,111.332 601,112.5C 601.149,109.721 601.983,109.221 603.5,111C 602.353,112.281 602.687,112.614 604.5,112C 604.982,110.992 605.148,109.825 605,108.5C 605.667,109.833 606.333,109.833 607,108.5C 607.265,110.163 606.765,111.663 605.5,113C 609.166,113.823 610.833,112.323 610.5,108.5 Z"/></g>
<g><path style="opacity:1" fill="#33fd33" d="M 187.5,160.5 C 217.279,178.403 229.613,204.736 224.5,239.5C 214.077,275.736 189.91,294.736 152,296.5C 116.485,293.806 93.6517,275.473 83.5,241.5C 78.2184,214.948 84.885,191.948 103.5,172.5C 128.78,150.423 156.78,146.423 187.5,160.5 Z"/></g>
<g><path style="opacity:1" fill="#9832fd" d="M 542.5,177.5 C 558.547,197.775 563.214,220.441 556.5,245.5C 539.847,285.998 509.847,302.165 466.5,294C 441.515,285.515 425.181,268.682 417.5,243.5C 411.322,216.355 417.655,192.688 436.5,172.5C 440.774,169.352 445.108,166.185 449.5,163C 484.025,145.532 515.025,150.366 542.5,177.5 Z"/></g>
<g><path style="opacity:1" fill="#410054" d="M 615.5,151.5 C 616.479,154.625 616.813,157.958 616.5,161.5C 616.5,188.5 616.5,215.5 616.5,242.5C 614.172,241.264 613.006,239.264 613,236.5C 612.727,238.329 611.893,239.829 610.5,241C 610.833,241.333 611.167,241.667 611.5,242C 610.216,242.684 609.049,242.517 608,241.5C 606.559,242.87 604.892,243.87 603,244.5C 602.45,239.774 600.45,238.774 597,241.5C 596.333,240.833 595.667,240.167 595,239.5C 595.453,241.454 595.62,243.287 595.5,245C 593.887,245.089 592.72,244.255 592,242.5C 591.267,246.988 589.267,247.988 586,245.5C 585.026,247.878 584.359,247.544 584,244.5C 583.333,247.167 582.667,247.167 582,244.5C 580.037,247.946 578.704,247.946 578,244.5C 575.626,241.712 574.293,242.046 574,245.5C 572.16,246.833 571.66,246.666 572.5,245C 571.692,244.692 571.025,244.192 570.5,243.5C 570.846,242.304 571.346,242.304 572,243.5C 572.788,241.835 573.122,240.169 573,238.5C 571.681,240.487 569.848,241.654 567.5,242C 570.17,243.724 569.837,244.891 566.5,245.5C 566.415,244.068 565.415,242.735 563.5,241.5C 561.425,244.043 559.091,245.376 556.5,245.5C 563.214,220.441 558.547,197.775 542.5,177.5C 542.489,175.983 541.823,174.816 540.5,174C 541.5,173.667 542.5,173.333 543.5,173C 542.549,172.282 542.383,171.449 543,170.5C 544.867,170.314 546.867,170.647 549,171.5C 549.945,171.905 550.612,172.572 551,173.5C 552.449,172.386 553.783,171.386 555,170.5C 555.667,171.833 556.333,171.833 557,170.5C 557.333,171.167 557.667,171.833 558,172.5C 558.333,171.167 558.667,169.833 559,168.5C 559.202,170.256 559.702,171.922 560.5,173.5C 562.058,172.629 563.725,171.629 565.5,170.5C 565.833,171.167 566.167,171.833 566.5,172.5C 568.046,166.306 569.546,166.639 571,173.5C 572.117,172.051 572.784,170.384 573,168.5C 573.216,170.384 573.883,172.051 575,173.5C 577.883,172.391 580.383,170.724 582.5,168.5C 583.354,169.522 584.354,170.355 585.5,171C 585.043,171.414 584.709,171.914 584.5,172.5C 585.5,173.833 586.5,173.833 587.5,172.5C 586.41,171.391 586.41,170.391 587.5,169.5C 588.736,170.246 590.07,170.579 591.5,170.5C 591.457,174.893 591.957,175.226 593,171.5C 595.854,168.691 598.187,169.691 600,174.5C 601.137,173.636 602.47,172.636 604,171.5C 604.333,172.167 604.667,172.833 605,173.5C 605.667,172.167 606.333,172.167 607,173.5C 607.617,172.551 607.451,171.718 606.5,171C 608.274,170.03 610.107,169.196 612,168.5C 613.762,168.944 613.595,169.444 611.5,170C 612.833,170.667 612.833,171.333 611.5,172C 612.793,172.49 614.127,172.657 615.5,172.5C 615.5,165.5 615.5,158.5 615.5,151.5 Z"/></g>
<g><path style="opacity:1" fill="#410054" d="M 25.5,151.5 C 25.1694,158.863 25.5027,166.197 26.5,173.5C 27.1924,172.975 27.6924,172.308 28,171.5C 31.5927,174.695 35.0927,174.861 38.5,172C 37.0439,171.577 36.5439,170.744 37,169.5C 38.4579,170.747 39.9579,170.747 41.5,169.5C 41.7365,170.247 42.0698,171.08 42.5,172C 44.4335,172.783 45.9335,172.283 47,170.5C 50.1592,171.745 49.9926,172.912 46.5,174C 48.1012,174.273 49.6012,174.773 51,175.5C 51.6838,174.216 51.5171,173.049 50.5,172C 52.0846,171.915 53.4179,171.749 54.5,171.5C 53.5,170.833 52.5,170.167 51.5,169.5C 53.9807,168.508 55.4807,169.508 56,172.5C 57,171.5 58,170.5 59,169.5C 59.6667,170.833 60.6667,171.833 62,172.5C 62.6172,171.551 62.4506,170.718 61.5,170C 62.4491,169.383 63.2825,169.549 64,170.5C 64.6667,169.833 65.3333,169.167 66,168.5C 66.3501,170.429 67.0168,172.429 68,174.5C 69.487,173.747 69.6537,172.914 68.5,172C 69.9961,171.493 71.1627,171.993 72,173.5C 72.6172,172.551 72.4506,171.718 71.5,171C 73.3289,170.727 74.8289,169.893 76,168.5C 79.0352,173.5 82.5352,174.166 86.5,170.5C 87.1924,171.025 87.6924,171.692 88,172.5C 89.3369,170.996 91.0036,169.996 93,169.5C 94.2036,170.471 94.7036,171.471 94.5,172.5C 97.4612,172.353 100.461,172.353 103.5,172.5C 84.885,191.948 78.2184,214.948 83.5,241.5C 82.4583,242.791 81.2917,242.791 80,241.5C 78.6225,246.784 77.2891,246.784 76,241.5C 75.3109,242.357 74.4776,243.023 73.5,243.5C 71.3766,241.69 69.0433,240.357 66.5,239.5C 66.6495,240.552 66.4828,241.552 66,242.5C 64.9505,241.483 63.7839,241.316 62.5,242C 63.8333,242.667 63.8333,243.333 62.5,244C 60.5497,245.496 58.5497,245.663 56.5,244.5C 57.5896,243.391 57.5896,242.391 56.5,241.5C 55.8333,242.833 55.1667,244.167 54.5,245.5C 51.9722,244.502 51.9722,243.669 54.5,243C 53.8742,242.25 53.3742,241.416 53,240.5C 50.6794,246.758 47.1794,247.758 42.5,243.5C 40.9361,244.186 39.2694,244.019 37.5,243C 38.8882,242.111 38.7215,241.611 37,241.5C 35.9456,242.482 35.4456,243.649 35.5,245C 34.1667,245.667 32.8333,245.667 31.5,245C 32.7059,243.982 32.3726,243.482 30.5,243.5C 27.9722,244.169 27.9722,245.002 30.5,246C 28.6951,247.441 26.6951,247.608 24.5,246.5C 24.5,220.5 24.5,194.5 24.5,168.5C 24.1778,162.642 24.5111,156.975 25.5,151.5 Z"/></g>
<g><path style="opacity:1" fill="#410054" d="M 254.5,157.5 C 262.681,174.844 275.681,187.344 293.5,195C 325.374,205.642 352.707,198.809 375.5,174.5C 377.044,174.297 378.378,173.63 379.5,172.5C 380.192,173.025 380.692,173.692 381,174.5C 381.739,173.426 382.739,172.759 384,172.5C 386.178,173.524 388.345,173.357 390.5,172C 388.291,171.043 388.457,169.876 391,168.5C 393.116,169.69 395.116,171.023 397,172.5C 397.333,171.833 397.667,171.167 398,170.5C 399.399,170.501 400.899,170.835 402.5,171.5C 403.243,172.908 404.077,174.241 405,175.5C 407.669,172.433 411.003,172.1 415,174.5C 415.684,173.216 415.517,172.049 414.5,171C 415.5,170.333 416.5,170.333 417.5,171C 416.304,171.654 416.304,172.154 417.5,172.5C 420.145,172.158 422.645,170.825 425,168.5C 425.617,169.449 425.451,170.282 424.5,171C 427.842,174.507 430.508,174.007 432.5,169.5C 433.901,170.521 435.235,171.521 436.5,172.5C 417.655,192.688 411.322,216.355 417.5,243.5C 416.292,242.766 414.959,242.433 413.5,242.5C 413.719,243.675 413.386,244.675 412.5,245.5C 411.284,244.998 410.117,244.665 409,244.5C 408.781,245.938 408.281,247.271 407.5,248.5C 407.594,247.028 406.594,245.862 404.5,245C 407.851,240.157 407.184,238.99 402.5,241.5C 402.704,240.471 402.204,239.471 401,238.5C 400.988,240.34 400.154,242.173 398.5,244C 399.888,244.889 399.722,245.389 398,245.5C 396.174,244.99 396.007,244.156 397.5,243C 396.551,242.383 395.718,242.549 395,243.5C 394.383,242.551 394.549,241.718 395.5,241C 394.584,240.626 393.75,240.126 393,239.5C 393.077,240.738 392.911,241.738 392.5,242.5C 390.974,240.342 389.474,240.675 388,243.5C 386.667,243.5 385.333,243.5 384,243.5C 383.333,240.833 382.667,240.833 382,243.5C 381.667,243.167 381.333,242.833 381,242.5C 380.667,243.833 380.333,245.167 380,246.5C 379.683,244.699 379.016,244.366 378,245.5C 377.517,244.552 377.351,243.552 377.5,242.5C 376.325,242.719 375.325,242.386 374.5,241.5C 375.506,240.604 375.506,239.938 374.5,239.5C 373.757,240.908 372.923,242.241 372,243.5C 371.586,243.043 371.086,242.709 370.5,242.5C 370.891,243.891 370.058,244.891 368,245.5C 367.138,243.913 366.471,242.246 366,240.5C 365.993,242.619 364.826,244.453 362.5,246C 363.451,246.718 363.617,247.551 363,248.5C 361.406,247.284 359.906,245.951 358.5,244.5C 357.478,244.855 356.811,245.522 356.5,246.5C 342.565,241.608 330.731,244.608 321,255.5C 312.188,245.618 301.355,242.285 288.5,245.5C 287.987,243.146 286.821,241.146 285,239.5C 284.692,240.308 284.192,240.975 283.5,241.5C 283.167,240.833 282.833,240.167 282.5,239.5C 281.673,241.162 280.507,242.495 279,243.5C 278.333,240.833 277.667,240.833 277,243.5C 276.259,242.359 275.425,242.359 274.5,243.5C 273.304,243.154 273.304,242.654 274.5,242C 270.833,239.74 269.333,240.573 270,244.5C 268.601,243.773 267.101,243.273 265.5,243C 266.517,241.951 266.684,240.784 266,239.5C 265.333,240.833 264.667,240.833 264,239.5C 263.663,241.807 264.496,243.64 266.5,245C 265.552,245.483 264.552,245.649 263.5,245.5C 263.719,244.325 263.386,243.325 262.5,242.5C 261.167,244.182 260,245.849 259,247.5C 258.333,245.5 257.667,243.5 257,241.5C 255.983,244.028 254.816,244.028 253.5,241.5C 252.784,242.311 251.95,242.978 251,243.5C 249.529,240.648 247.529,240.982 245,244.5C 244.51,243.207 244.343,241.873 244.5,240.5C 242.897,240.312 241.563,240.812 240.5,242C 243.028,242.669 243.028,243.502 240.5,244.5C 238.618,243.907 236.785,243.24 235,242.5C 234.667,243.833 234.333,245.167 234,246.5C 232.564,244.429 233.064,242.596 235.5,241C 234.216,240.316 233.049,240.483 232,241.5C 231.338,237.647 230.504,237.647 229.5,241.5C 230.91,243.814 230.243,245.48 227.5,246.5C 227.199,244.092 226.199,241.759 224.5,239.5C 229.613,204.736 217.279,178.403 187.5,160.5C 188.151,159.909 188.818,159.243 189.5,158.5C 191.736,159.164 193.736,160.331 195.5,162C 198.267,162.056 200.933,162.222 203.5,162.5C 204.478,162.023 205.311,161.357 206,160.5C 206.333,161.167 206.667,161.833 207,162.5C 207.667,157.167 208.333,157.167 209,162.5C 209.419,161.328 210.085,160.328 211,159.5C 211.617,160.449 211.451,161.282 210.5,162C 211.742,162.311 212.742,161.811 213.5,160.5C 214.192,161.025 214.692,161.692 215,162.5C 215.779,161.272 216.779,160.272 218,159.5C 220.298,160.065 221.131,161.232 220.5,163C 221.825,162.852 222.992,163.018 224,163.5C 223.852,162.175 224.018,161.008 224.5,160C 227.607,160.453 230.607,160.453 233.5,160C 232.672,159.085 231.672,158.419 230.5,158C 232.888,157.135 234.388,157.968 235,160.5C 235.875,158.487 237.209,158.487 239,160.5C 240.309,158.109 241.309,158.109 242,160.5C 242.419,159.328 243.085,158.328 244,157.5C 244.741,158.641 245.575,158.641 246.5,157.5C 247.624,159.974 249.457,161.64 252,162.5C 253.876,161.381 254.709,159.714 254.5,157.5 Z"/></g>
<g><path style="opacity:1" fill="#fcc941" d="M 611.5,111.5 C 613.067,112.681 613.901,114.347 614,116.5C 614.718,115.549 615.551,115.383 616.5,116C 615.396,117.131 615.729,117.965 617.5,118.5C 617.489,117.559 617.989,116.892 619,116.5C 621.558,116.718 624.058,116.718 626.5,116.5C 627.251,115.624 627.751,114.624 628,113.5C 628.84,116.464 629.84,116.797 631,114.5C 632.529,115.583 634.029,116.583 635.5,117.5C 636.696,117.154 636.696,116.654 635.5,116C 636.094,115.536 636.761,115.369 637.5,115.5C 639.403,125.891 640.737,136.224 641.5,146.5C 641.5,170.5 641.5,194.5 641.5,218.5C 639.549,218.773 638.049,218.107 637,216.5C 636.805,218.207 636.805,219.874 637,221.5C 635.667,220.833 634.667,219.833 634,218.5C 633.692,219.308 633.192,219.975 632.5,220.5C 631.186,219.687 630.019,218.687 629,217.5C 628.333,220.167 627.667,220.167 627,217.5C 625.915,218.293 624.748,218.96 623.5,219.5C 621.591,218.652 619.591,218.318 617.5,218.5C 617.83,199.326 617.497,180.326 616.5,161.5C 616.813,157.958 616.479,154.625 615.5,151.5C 615.911,137.974 614.578,124.64 611.5,111.5 Z"/></g>
<g><path style="opacity:1" fill="#fcc941" d="M 27.5,118.5 C 25.9944,129.439 25.3277,140.439 25.5,151.5C 24.5111,156.975 24.1778,162.642 24.5,168.5C 23.5033,185.659 23.17,202.992 23.5,220.5C 21.9705,219.933 20.4705,219.267 19,218.5C 18.0255,220.878 17.3589,220.544 17,217.5C 16.6411,220.544 15.9745,220.878 15,218.5C 14,219.167 13,219.833 12,220.5C 11.2613,219.426 10.2613,218.759 9,218.5C 7.27034,219.649 5.60367,219.649 4,218.5C 3.69238,219.308 3.19238,219.975 2.5,220.5C 1.58317,219.873 0.583168,219.539 -0.5,219.5C -0.5,195.167 -0.5,170.833 -0.5,146.5C 0.172387,136.517 1.50572,126.517 3.5,116.5C 4.82487,115.047 5.6582,115.381 6,117.5C 6.66667,116.167 7.33333,116.167 8,117.5C 8.24917,116.376 8.74917,115.376 9.5,114.5C 10.8333,115.167 12.1667,115.833 13.5,116.5C 16.6639,114.144 20.1639,114.144 24,116.5C 24.3333,115.833 24.6667,115.167 25,114.5C 26.0848,115.736 26.9181,117.069 27.5,118.5 Z"/></g>
<g><path style="opacity:1" fill="#3b004d" d="M 616.5,242.5 C 616.5,275.833 616.5,309.167 616.5,342.5C 615.778,342.082 615.278,341.416 615,340.5C 614.667,341.167 614.333,341.833 614,342.5C 612.915,341.707 611.748,341.04 610.5,340.5C 609.636,342.197 608.303,343.363 606.5,344C 607.654,344.914 607.487,345.747 606,346.5C 604.47,344.774 603.47,342.774 603,340.5C 600.756,342.994 598.423,342.994 596,340.5C 595.333,341.167 594.667,341.833 594,342.5C 592.475,342.112 590.808,342.112 589,342.5C 587.933,340.717 586.433,340.217 584.5,341C 587.279,341.149 587.779,341.983 586,343.5C 585.667,343.167 585.333,342.833 585,342.5C 584.667,343.5 584.333,344.5 584,345.5C 581.936,343.153 579.936,341.486 578,340.5C 577.717,343.742 576.883,344.076 575.5,341.5C 574.3,342.531 572.966,343.365 571.5,344C 572.654,344.914 572.487,345.747 571,346.5C 569.448,343.847 569.615,341.181 571.5,338.5C 571.167,338.167 570.833,337.833 570.5,337.5C 568.878,338.933 567.545,340.599 566.5,342.5C 566.167,341.167 565.833,339.833 565.5,338.5C 564.937,340.709 563.604,342.209 561.5,343C 562.833,343.333 564.167,343.667 565.5,344C 565,344.5 564.5,345 564,345.5C 562.602,344.949 561.268,344.616 560,344.5C 559.493,343.004 559.993,341.837 561.5,341C 559.074,341.048 556.741,340.881 554.5,340.5C 553.796,342.101 552.629,343.435 551,344.5C 548.792,340.31 546.459,339.643 544,342.5C 542.16,341.167 541.66,341.334 542.5,343C 540.926,344.826 540.093,346.993 540,349.5C 538.252,346.631 536.252,343.964 534,341.5C 533.228,342.849 532.061,343.682 530.5,344C 531.517,345.049 531.684,346.216 531,347.5C 527.694,346.86 525.694,344.86 525,341.5C 524.577,342.956 523.744,343.456 522.5,343C 522.957,342.586 523.291,342.086 523.5,341.5C 522.282,341.891 521.448,341.224 521,339.5C 519.933,340.191 518.766,340.691 517.5,341C 519.074,341.336 520.408,342.169 521.5,343.5C 520.5,344.833 519.5,346.167 518.5,347.5C 518.788,348.861 519.121,350.194 519.5,351.5C 497.81,342.264 476.143,342.264 454.5,351.5C 454.167,348.5 455.5,347.167 458.5,347.5C 458.703,345.61 458.037,344.11 456.5,343C 457.167,342.667 457.833,342.333 458.5,342C 456.051,341.045 454.051,339.545 452.5,337.5C 452.331,338.397 451.998,339.397 451.5,340.5C 450.808,339.975 450.308,339.308 450,338.5C 449.5,339.667 448.667,340.5 447.5,341C 448.167,341.333 448.833,341.667 449.5,342C 446.965,342.617 444.632,342.117 442.5,340.5C 441.205,341.098 439.872,341.598 438.5,342C 439.167,342.333 439.833,342.667 440.5,343C 438.452,344.681 436.285,346.181 434,347.5C 433.448,344.803 431.948,342.803 429.5,341.5C 426.84,344.07 427.506,345.57 431.5,346C 430.428,347.284 429.095,347.617 427.5,347C 428.888,347.889 428.722,348.389 427,348.5C 426.5,348.333 426,348.167 425.5,348C 426.731,346.817 426.731,345.651 425.5,344.5C 424.604,345.506 423.938,345.506 423.5,344.5C 423.901,342.566 424.901,341.066 426.5,340C 424.567,339.217 423.067,339.717 422,341.5C 420.383,340.464 420.216,339.297 421.5,338C 418.405,337.687 415.405,338.187 412.5,339.5C 411.033,339.277 409.533,338.944 408,338.5C 406.086,339.676 406.252,340.676 408.5,341.5C 407.726,342.711 406.893,342.711 406,341.5C 405.316,342.784 405.483,343.951 406.5,345C 405.322,345.967 403.989,346.467 402.5,346.5C 402.167,346.333 401.833,346.167 401.5,346C 402.357,345.311 403.023,344.478 403.5,343.5C 402.263,342.719 401.263,341.719 400.5,340.5C 401.52,338.568 401.687,336.568 401,334.5C 400.786,338.438 398.953,341.272 395.5,343C 397.929,343.451 398.096,344.285 396,345.5C 393.695,343.399 392.028,341.399 391,339.5C 389.238,339.944 389.405,340.444 391.5,341C 389.893,342.049 389.227,343.549 389.5,345.5C 386.27,345.439 384.437,343.772 384,340.5C 383.667,342.167 383.333,343.833 383,345.5C 381.513,344.747 381.346,343.914 382.5,343C 380.385,342.443 378.385,341.609 376.5,340.5C 375.914,340.709 375.414,341.043 375,341.5C 374.831,358.005 374.331,374.338 373.5,390.5C 373.667,349.165 373.5,307.832 373,266.5C 369.837,257.843 364.337,251.177 356.5,246.5C 356.811,245.522 357.478,244.855 358.5,244.5C 359.906,245.951 361.406,247.284 363,248.5C 363.617,247.551 363.451,246.718 362.5,246C 364.826,244.453 365.993,242.619 366,240.5C 366.471,242.246 367.138,243.913 368,245.5C 370.058,244.891 370.891,243.891 370.5,242.5C 371.086,242.709 371.586,243.043 372,243.5C 372.923,242.241 373.757,240.908 374.5,239.5C 375.506,239.938 375.506,240.604 374.5,241.5C 375.325,242.386 376.325,242.719 377.5,242.5C 377.351,243.552 377.517,244.552 378,245.5C 379.016,244.366 379.683,244.699 380,246.5C 380.333,245.167 380.667,243.833 381,242.5C 381.333,242.833 381.667,243.167 382,243.5C 382.667,240.833 383.333,240.833 384,243.5C 385.333,243.5 386.667,243.5 388,243.5C 389.474,240.675 390.974,240.342 392.5,242.5C 392.911,241.738 393.077,240.738 393,239.5C 393.75,240.126 394.584,240.626 395.5,241C 394.549,241.718 394.383,242.551 395,243.5C 395.718,242.549 396.551,242.383 397.5,243C 396.007,244.156 396.174,244.99 398,245.5C 399.722,245.389 399.888,244.889 398.5,244C 400.154,242.173 400.988,240.34 401,238.5C 402.204,239.471 402.704,240.471 402.5,241.5C 407.184,238.99 407.851,240.157 404.5,245C 406.594,245.862 407.594,247.028 407.5,248.5C 408.281,247.271 408.781,245.938 409,244.5C 410.117,244.665 411.284,244.998 412.5,245.5C 413.386,244.675 413.719,243.675 413.5,242.5C 414.959,242.433 416.292,242.766 417.5,243.5C 425.181,268.682 441.515,285.515 466.5,294C 509.847,302.165 539.847,285.998 556.5,245.5C 559.091,245.376 561.425,244.043 563.5,241.5C 565.415,242.735 566.415,244.068 566.5,245.5C 569.837,244.891 570.17,243.724 567.5,242C 569.848,241.654 571.681,240.487 573,238.5C 573.122,240.169 572.788,241.835 572,243.5C 571.346,242.304 570.846,242.304 570.5,243.5C 571.025,244.192 571.692,244.692 572.5,245C 571.66,246.666 572.16,246.833 574,245.5C 574.293,242.046 575.626,241.712 578,244.5C 578.704,247.946 580.037,247.946 582,244.5C 582.667,247.167 583.333,247.167 584,244.5C 584.359,247.544 585.026,247.878 586,245.5C 589.267,247.988 591.267,246.988 592,242.5C 592.72,244.255 593.887,245.089 595.5,245C 595.62,243.287 595.453,241.454 595,239.5C 595.667,240.167 596.333,240.833 597,241.5C 600.45,238.774 602.45,239.774 603,244.5C 604.892,243.87 606.559,242.87 608,241.5C 609.049,242.517 610.216,242.684 611.5,242C 611.167,241.667 610.833,241.333 610.5,241C 611.893,239.829 612.727,238.329 613,236.5C 613.006,239.264 614.172,241.264 616.5,242.5 Z"/></g>
<g><path style="opacity:1" fill="#ce40f8" d="M 356.5,246.5 C 364.337,251.177 369.837,257.843 373,266.5C 373.5,307.832 373.667,349.165 373.5,390.5C 371.746,396.364 368.079,397.864 362.5,395C 361.874,394.25 361.374,393.416 361,392.5C 360.667,351.167 360.333,309.833 360,268.5C 353.138,256.589 343.971,254.423 332.5,262C 330.623,264.251 329.123,266.751 328,269.5C 327.667,310.5 327.333,351.5 327,392.5C 323.399,397.321 319.399,397.654 315,393.5C 313.678,351.917 313.011,310.251 313,268.5C 307.411,258.118 299.244,255.285 288.5,260C 285.96,262.205 283.793,264.705 282,267.5C 281.667,308.833 281.333,350.167 281,391.5C 277.819,397.252 273.819,397.919 269,393.5C 267.345,352.251 267.012,310.917 268,269.5C 270.373,257.632 277.206,249.632 288.5,245.5C 301.355,242.285 312.188,245.618 321,255.5C 330.731,244.608 342.565,241.608 356.5,246.5 Z"/></g>
<g><path style="opacity:1" fill="#fcb92b" d="M 23.5,220.5 C 23.5,259.833 23.5,299.167 23.5,338.5C 21.8267,337.657 20.66,336.324 20,334.5C 18.887,335.76 18.7203,336.927 19.5,338C 16.2598,339.423 12.9265,339.423 9.5,338C 10.1667,337.667 10.8333,337.333 11.5,337C 10.2341,336.691 9.06743,336.191 8,335.5C 6.98873,336.337 5.82207,336.67 4.5,336.5C 4.66913,341.041 4.00247,341.374 2.5,337.5C 1.47283,336.209 0.472826,336.209 -0.5,337.5C -0.5,298.167 -0.5,258.833 -0.5,219.5C 0.583168,219.539 1.58317,219.873 2.5,220.5C 3.19238,219.975 3.69238,219.308 4,218.5C 5.60367,219.649 7.27034,219.649 9,218.5C 10.2613,218.759 11.2613,219.426 12,220.5C 13,219.833 14,219.167 15,218.5C 15.9745,220.878 16.6411,220.544 17,217.5C 17.3589,220.544 18.0255,220.878 19,218.5C 20.4705,219.267 21.9705,219.933 23.5,220.5 Z"/></g>
<g><path style="opacity:1" fill="#fcb92b" d="M 641.5,218.5 C 641.5,258.833 641.5,299.167 641.5,339.5C 639.801,339.66 638.134,339.494 636.5,339C 637.167,338.667 637.833,338.333 638.5,338C 637.333,336.833 636.167,335.667 635,334.5C 634.667,335.5 634.333,336.5 634,337.5C 633.333,336.167 632.667,336.167 632,337.5C 631.667,336.5 631.333,335.5 631,334.5C 630,336.5 629,338.5 628,340.5C 627.517,339.552 627.351,338.552 627.5,337.5C 625.94,337.519 624.44,337.852 623,338.5C 621.187,337.309 620.354,335.976 620.5,334.5C 619.479,335.901 618.479,337.235 617.5,338.5C 617.5,298.5 617.5,258.5 617.5,218.5C 619.591,218.318 621.591,218.652 623.5,219.5C 624.748,218.96 625.915,218.293 627,217.5C 627.667,220.167 628.333,220.167 629,217.5C 630.019,218.687 631.186,219.687 632.5,220.5C 633.192,219.975 633.692,219.308 634,218.5C 634.667,219.833 635.667,220.833 637,221.5C 636.805,219.874 636.805,218.207 637,216.5C 638.049,218.107 639.549,218.773 641.5,218.5 Z"/></g>
<g><path style="opacity:1" fill="#fd9732" d="M 225.5,408.5 C 227.057,444.758 211.39,470.091 178.5,484.5C 163.227,489.331 147.894,489.664 132.5,485.5C 102.657,474.515 85.6567,453.182 81.5,421.5C 81.9836,380.702 101.984,355.202 141.5,345C 173.322,341.832 198.155,353.332 216,379.5C 221.274,388.487 224.44,398.154 225.5,408.5 Z"/></g>
<g><path style="opacity:1" fill="#fd32fd" d="M 519.5,351.5 C 549.189,368.542 562.189,394.209 558.5,428.5C 551.296,459.702 532.296,479.369 501.5,487.5C 490.113,488.967 478.779,488.634 467.5,486.5C 438.318,475.968 420.984,455.302 415.5,424.5C 413.591,391.974 426.591,367.64 454.5,351.5C 476.143,342.264 497.81,342.264 519.5,351.5 Z"/></g>
<g><path style="opacity:1" fill="#39004a" d="M 288.5,245.5 C 277.206,249.632 270.373,257.632 268,269.5C 267.012,310.917 267.345,352.251 269,393.5C 273.819,397.919 277.819,397.252 281,391.5C 281.333,350.167 281.667,308.833 282,267.5C 283.793,264.705 285.96,262.205 288.5,260C 299.244,255.285 307.411,258.118 313,268.5C 313.011,310.251 313.678,351.917 315,393.5C 319.399,397.654 323.399,397.321 327,392.5C 327.333,351.5 327.667,310.5 328,269.5C 329.123,266.751 330.623,264.251 332.5,262C 343.971,254.423 353.138,256.589 360,268.5C 360.333,309.833 360.667,351.167 361,392.5C 361.374,393.416 361.874,394.25 362.5,395C 368.079,397.864 371.746,396.364 373.5,390.5C 374.331,374.338 374.831,358.005 375,341.5C 375.414,341.043 375.914,340.709 376.5,340.5C 378.385,341.609 380.385,342.443 382.5,343C 381.346,343.914 381.513,344.747 383,345.5C 383.333,343.833 383.667,342.167 384,340.5C 384.437,343.772 386.27,345.439 389.5,345.5C 389.227,343.549 389.893,342.049 391.5,341C 389.405,340.444 389.238,339.944 391,339.5C 392.028,341.399 393.695,343.399 396,345.5C 398.096,344.285 397.929,343.451 395.5,343C 398.953,341.272 400.786,338.438 401,334.5C 401.687,336.568 401.52,338.568 400.5,340.5C 401.263,341.719 402.263,342.719 403.5,343.5C 403.023,344.478 402.357,345.311 401.5,346C 401.833,346.167 402.167,346.333 402.5,346.5C 403.989,346.467 405.322,345.967 406.5,345C 405.483,343.951 405.316,342.784 406,341.5C 406.893,342.711 407.726,342.711 408.5,341.5C 406.252,340.676 406.086,339.676 408,338.5C 409.533,338.944 411.033,339.277 412.5,339.5C 415.405,338.187 418.405,337.687 421.5,338C 420.216,339.297 420.383,340.464 422,341.5C 423.067,339.717 424.567,339.217 426.5,340C 424.901,341.066 423.901,342.566 423.5,344.5C 423.938,345.506 424.604,345.506 425.5,344.5C 426.731,345.651 426.731,346.817 425.5,348C 426,348.167 426.5,348.333 427,348.5C 428.722,348.389 428.888,347.889 427.5,347C 429.095,347.617 430.428,347.284 431.5,346C 427.506,345.57 426.84,344.07 429.5,341.5C 431.948,342.803 433.448,344.803 434,347.5C 436.285,346.181 438.452,344.681 440.5,343C 439.833,342.667 439.167,342.333 438.5,342C 439.872,341.598 441.205,341.098 442.5,340.5C 444.632,342.117 446.965,342.617 449.5,342C 448.833,341.667 448.167,341.333 447.5,341C 448.667,340.5 449.5,339.667 450,338.5C 450.308,339.308 450.808,339.975 451.5,340.5C 451.998,339.397 452.331,338.397 452.5,337.5C 454.051,339.545 456.051,341.045 458.5,342C 457.833,342.333 457.167,342.667 456.5,343C 458.037,344.11 458.703,345.61 458.5,347.5C 455.5,347.167 454.167,348.5 454.5,351.5C 426.591,367.64 413.591,391.974 415.5,424.5C 414.25,424.577 413.417,425.244 413,426.5C 412.667,425.5 412.333,424.5 412,423.5C 409.708,424.79 407.708,426.457 406,428.5C 405.383,427.551 405.549,426.718 406.5,426C 404.892,425.342 403.725,425.842 403,427.5C 400.688,427.045 398.688,426.045 397,424.5C 395.984,425.634 395.317,425.301 395,423.5C 394.612,424.428 393.945,425.095 393,425.5C 392.619,424.518 391.786,423.852 390.5,423.5C 389.833,423.667 389.167,423.833 388.5,424C 389.716,425.594 391.049,427.094 392.5,428.5C 391.753,428.736 390.92,429.07 390,429.5C 389,428.5 388,427.5 387,426.5C 386.667,427.167 386.333,427.833 386,428.5C 385.667,426.833 385.333,425.167 385,423.5C 384.259,424.641 383.425,424.641 382.5,423.5C 381.514,427.375 380.347,427.375 379,423.5C 378.667,423.833 378.333,424.167 378,424.5C 377.296,421.054 375.963,421.054 374,424.5C 372.355,424.307 370.521,424.14 368.5,424C 367.176,421.291 365.51,420.958 363.5,423C 364.672,423.419 365.672,424.085 366.5,425C 365.551,425.617 364.718,425.451 364,424.5C 363.481,425.516 362.647,426.182 361.5,426.5C 358.25,425.479 355.416,423.812 353,421.5C 352.5,422.667 351.667,423.5 350.5,424C 352.762,424.701 353.762,425.868 353.5,427.5C 352.5,426.833 351.5,426.167 350.5,425.5C 347.146,426.204 343.98,426.204 341,425.5C 339.965,422.214 338.465,421.88 336.5,424.5C 335.549,423.674 334.549,423.508 333.5,424C 334.451,424.718 334.617,425.551 334,426.5C 331.679,423.967 329.679,424.301 328,427.5C 327.902,425.381 327.069,423.714 325.5,422.5C 325.251,423.582 325.085,424.915 325,426.5C 324.667,425.833 324.333,425.167 324,424.5C 321.766,424.374 319.432,424.707 317,425.5C 315.691,423.109 314.691,423.109 314,425.5C 312.286,424.075 310.953,424.408 310,426.5C 308.934,424.901 307.434,423.901 305.5,423.5C 305.628,425.129 304.628,426.462 302.5,427.5C 299.724,427.054 297.224,426.054 295,424.5C 294.667,424.833 294.333,425.167 294,425.5C 292.796,424.529 292.296,423.529 292.5,422.5C 290.549,423.256 288.716,423.589 287,423.5C 286.667,422.5 286.333,421.5 286,420.5C 284.316,422.706 282.149,424.206 279.5,425C 280.451,425.718 280.617,426.551 280,427.5C 278.272,425.158 276.605,422.825 275,420.5C 274.821,422.424 274.654,424.091 274.5,425.5C 272.253,422.173 270.753,422.173 270,425.5C 269.395,423.519 268.395,423.185 267,424.5C 266.676,422.431 265.842,422.098 264.5,423.5C 263.522,423.023 262.689,422.357 262,421.5C 261.033,422.678 260.533,424.011 260.5,425.5C 259.808,424.975 259.308,424.308 259,423.5C 257.951,424.517 256.784,424.684 255.5,424C 256.841,420.738 256.508,420.238 254.5,422.5C 253.833,422.167 253.167,421.833 252.5,421.5C 251.758,423.35 250.758,424.016 249.5,423.5C 251.085,425.087 252.752,425.92 254.5,426C 254,426.5 253.5,427 253,427.5C 251.175,426.897 249.341,426.23 247.5,425.5C 248.59,424.391 248.59,423.391 247.5,422.5C 245.833,423.833 244.167,425.167 242.5,426.5C 242.704,425.471 242.204,424.471 241,423.5C 240.333,424.833 239.667,424.833 239,423.5C 238.085,424.328 237.419,425.328 237,426.5C 236.692,425.692 236.192,425.025 235.5,424.5C 234.494,424.938 234.494,425.604 235.5,426.5C 233.693,427.799 232.027,427.632 230.5,426C 231.654,425.086 231.487,424.253 230,423.5C 228.853,424.458 227.853,424.125 227,422.5C 226.826,417.649 226.326,412.982 225.5,408.5C 224.44,398.154 221.274,388.487 216,379.5C 198.155,353.332 173.322,341.832 141.5,345C 101.984,355.202 81.9836,380.702 81.5,421.5C 79.1094,423.642 76.4428,423.975 73.5,422.5C 72.5,423.833 71.5,425.167 70.5,426.5C 70.8914,425.109 70.0581,424.109 68,423.5C 67.586,423.957 67.086,424.291 66.5,424.5C 66.3106,420.478 64.9772,420.478 62.5,424.5C 61.6143,423.675 61.281,422.675 61.5,421.5C 60.9571,422.816 59.1237,423.816 56,424.5C 55.1475,422.875 54.1475,422.542 53,423.5C 51.9563,422.377 51.2896,421.044 51,419.5C 50.0331,420.678 49.5331,422.011 49.5,423.5C 47.5679,422.855 46.4012,421.521 46,419.5C 43.7773,421.723 42.444,424.389 42,427.5C 41.6667,426.5 41.3333,425.5 41,424.5C 38.5782,428.487 36.5782,428.154 35,423.5C 34.0853,424.328 33.4186,425.328 33,426.5C 30.2656,425.638 30.0989,424.805 32.5,424C 30.769,422.319 28.9357,421.153 27,420.5C 26.5172,421.448 26.3505,422.448 26.5,423.5C 27.675,423.281 28.675,423.614 29.5,424.5C 29.1667,424.833 28.8333,425.167 28.5,425.5C 27.1534,425.447 25.82,425.447 24.5,425.5C 24.5,365.833 24.5,306.167 24.5,246.5C 26.6951,247.608 28.6951,247.441 30.5,246C 27.9722,245.002 27.9722,244.169 30.5,243.5C 32.3726,243.482 32.7059,243.982 31.5,245C 32.8333,245.667 34.1667,245.667 35.5,245C 35.4456,243.649 35.9456,242.482 37,241.5C 38.7215,241.611 38.8882,242.111 37.5,243C 39.2694,244.019 40.9361,244.186 42.5,243.5C 47.1794,247.758 50.6794,246.758 53,240.5C 53.3742,241.416 53.8742,242.25 54.5,243C 51.9722,243.669 51.9722,244.502 54.5,245.5C 55.1667,244.167 55.8333,242.833 56.5,241.5C 57.5896,242.391 57.5896,243.391 56.5,244.5C 58.5497,245.663 60.5497,245.496 62.5,244C 63.8333,243.333 63.8333,242.667 62.5,242C 63.7839,241.316 64.9505,241.483 66,242.5C 66.4828,241.552 66.6495,240.552 66.5,239.5C 69.0433,240.357 71.3766,241.69 73.5,243.5C 74.4776,243.023 75.3109,242.357 76,241.5C 77.2891,246.784 78.6225,246.784 80,241.5C 81.2917,242.791 82.4583,242.791 83.5,241.5C 93.6517,275.473 116.485,293.806 152,296.5C 189.91,294.736 214.077,275.736 224.5,239.5C 226.199,241.759 227.199,244.092 227.5,246.5C 230.243,245.48 230.91,243.814 229.5,241.5C 230.504,237.647 231.338,237.647 232,241.5C 233.049,240.483 234.216,240.316 235.5,241C 233.064,242.596 232.564,244.429 234,246.5C 234.333,245.167 234.667,243.833 235,242.5C 236.785,243.24 238.618,243.907 240.5,244.5C 243.028,243.502 243.028,242.669 240.5,242C 241.563,240.812 242.897,240.312 244.5,240.5C 244.343,241.873 244.51,243.207 245,244.5C 247.529,240.982 249.529,240.648 251,243.5C 251.95,242.978 252.784,242.311 253.5,241.5C 254.816,244.028 255.983,244.028 257,241.5C 257.667,243.5 258.333,245.5 259,247.5C 260,245.849 261.167,244.182 262.5,242.5C 263.386,243.325 263.719,244.325 263.5,245.5C 264.552,245.649 265.552,245.483 266.5,245C 264.496,243.64 263.663,241.807 264,239.5C 264.667,240.833 265.333,240.833 266,239.5C 266.684,240.784 266.517,241.951 265.5,243C 267.101,243.273 268.601,243.773 270,244.5C 269.333,240.573 270.833,239.74 274.5,242C 273.304,242.654 273.304,243.154 274.5,243.5C 275.425,242.359 276.259,242.359 277,243.5C 277.667,240.833 278.333,240.833 279,243.5C 280.507,242.495 281.673,241.162 282.5,239.5C 282.833,240.167 283.167,240.833 283.5,241.5C 284.192,240.975 284.692,240.308 285,239.5C 286.821,241.146 287.987,243.146 288.5,245.5 Z"/></g>
<g><path style="opacity:1" fill="#370047" d="M 616.5,342.5 C 616.5,370.833 616.5,399.167 616.5,427.5C 615.25,427.577 614.417,428.244 614,429.5C 613.121,427.104 612.454,424.771 612,422.5C 610.566,424.136 608.733,425.136 606.5,425.5C 604.979,425.12 603.313,424.954 601.5,425C 603.645,424.257 603.811,423.424 602,422.5C 600.235,423.232 599.068,424.565 598.5,426.5C 597.281,425.737 596.281,424.737 595.5,423.5C 595.251,424.582 595.085,425.915 595,427.5C 594.581,426.328 593.915,425.328 593,424.5C 591.759,426.421 590.259,426.754 588.5,425.5C 590.836,423.927 590.836,422.594 588.5,421.5C 587.749,422.376 587.249,423.376 587,424.5C 586.333,423.167 585.667,423.167 585,424.5C 584.667,423.833 584.333,423.167 584,422.5C 582.846,423.743 581.512,424.743 580,425.5C 577.985,424.158 575.818,423.658 573.5,424C 574.167,424.333 574.833,424.667 575.5,425C 573.924,425.44 572.59,426.273 571.5,427.5C 570.41,426.273 569.076,425.44 567.5,425C 569.795,424.016 569.461,423.183 566.5,422.5C 565.904,423.716 565.737,425.049 566,426.5C 565.667,426.167 565.333,425.833 565,425.5C 564.692,426.308 564.192,426.975 563.5,427.5C 562.476,426.147 561.143,425.48 559.5,425.5C 559.737,426.791 559.404,427.791 558.5,428.5C 562.189,394.209 549.189,368.542 519.5,351.5C 519.121,350.194 518.788,348.861 518.5,347.5C 519.5,346.167 520.5,344.833 521.5,343.5C 520.408,342.169 519.074,341.336 517.5,341C 518.766,340.691 519.933,340.191 521,339.5C 521.448,341.224 522.282,341.891 523.5,341.5C 523.291,342.086 522.957,342.586 522.5,343C 523.744,343.456 524.577,342.956 525,341.5C 525.694,344.86 527.694,346.86 531,347.5C 531.684,346.216 531.517,345.049 530.5,344C 532.061,343.682 533.228,342.849 534,341.5C 536.252,343.964 538.252,346.631 540,349.5C 540.093,346.993 540.926,344.826 542.5,343C 541.66,341.334 542.16,341.167 544,342.5C 546.459,339.643 548.792,340.31 551,344.5C 552.629,343.435 553.796,342.101 554.5,340.5C 556.741,340.881 559.074,341.048 561.5,341C 559.993,341.837 559.493,343.004 560,344.5C 561.268,344.616 562.602,344.949 564,345.5C 564.5,345 565,344.5 565.5,344C 564.167,343.667 562.833,343.333 561.5,343C 563.604,342.209 564.937,340.709 565.5,338.5C 565.833,339.833 566.167,341.167 566.5,342.5C 567.545,340.599 568.878,338.933 570.5,337.5C 570.833,337.833 571.167,338.167 571.5,338.5C 569.615,341.181 569.448,343.847 571,346.5C 572.487,345.747 572.654,344.914 571.5,344C 572.966,343.365 574.3,342.531 575.5,341.5C 576.883,344.076 577.717,343.742 578,340.5C 579.936,341.486 581.936,343.153 584,345.5C 584.333,344.5 584.667,343.5 585,342.5C 585.333,342.833 585.667,343.167 586,343.5C 587.779,341.983 587.279,341.149 584.5,341C 586.433,340.217 587.933,340.717 589,342.5C 590.808,342.112 592.475,342.112 594,342.5C 594.667,341.833 595.333,341.167 596,340.5C 598.423,342.994 600.756,342.994 603,340.5C 603.47,342.774 604.47,344.774 606,346.5C 607.487,345.747 607.654,344.914 606.5,344C 608.303,343.363 609.636,342.197 610.5,340.5C 611.748,341.04 612.915,341.707 614,342.5C 614.333,341.833 614.667,341.167 615,340.5C 615.278,341.416 615.778,342.082 616.5,342.5 Z"/></g>
<g><path style="opacity:1" fill="#fcae1e" d="M 23.5,338.5 C 23.5,370.5 23.5,402.5 23.5,434.5C 22.0695,434.421 20.7362,434.754 19.5,435.5C 18.4593,433.009 17.6259,433.009 17,435.5C 14.8103,434.416 13.1437,435.083 12,437.5C 10.7964,436.529 10.2964,435.529 10.5,434.5C 9.52242,434.977 8.68909,435.643 8,436.5C 7,435.167 6,435.167 5,436.5C 3.65445,434.658 1.82112,433.658 -0.5,433.5C -0.5,401.5 -0.5,369.5 -0.5,337.5C 0.472826,336.209 1.47283,336.209 2.5,337.5C 4.00247,341.374 4.66913,341.041 4.5,336.5C 5.82207,336.67 6.98873,336.337 8,335.5C 9.06743,336.191 10.2341,336.691 11.5,337C 10.8333,337.333 10.1667,337.667 9.5,338C 12.9265,339.423 16.2598,339.423 19.5,338C 18.7203,336.927 18.887,335.76 20,334.5C 20.66,336.324 21.8267,337.657 23.5,338.5 Z"/></g>
<g><path style="opacity:1" fill="#fcae1e" d="M 641.5,339.5 C 641.5,371.167 641.5,402.833 641.5,434.5C 639.026,437.209 636.86,436.875 635,433.5C 634.125,435.513 632.791,435.513 631,433.5C 629.086,434.676 629.252,435.676 631.5,436.5C 631.192,437.308 630.692,437.975 630,438.5C 628.702,434.692 626.702,433.692 624,435.5C 623.374,433.009 622.541,433.009 621.5,435.5C 620.749,434.624 620.249,433.624 620,432.5C 619.586,432.957 619.086,433.291 618.5,433.5C 617.5,401.84 617.167,370.174 617.5,338.5C 618.479,337.235 619.479,335.901 620.5,334.5C 620.354,335.976 621.187,337.309 623,338.5C 624.44,337.852 625.94,337.519 627.5,337.5C 627.351,338.552 627.517,339.552 628,340.5C 629,338.5 630,336.5 631,334.5C 631.333,335.5 631.667,336.5 632,337.5C 632.667,336.167 633.333,336.167 634,337.5C 634.333,336.5 634.667,335.5 635,334.5C 636.167,335.667 637.333,336.833 638.5,338C 637.833,338.333 637.167,338.667 636.5,339C 638.134,339.494 639.801,339.66 641.5,339.5 Z"/></g>
<g><path style="opacity:1" fill="#330041" d="M 81.5,421.5 C 85.6567,453.182 102.657,474.515 132.5,485.5C 131.955,487.593 131.122,489.593 130,491.5C 129.25,490.874 128.416,490.374 127.5,490C 128.654,489.086 128.487,488.253 127,487.5C 126.333,488.833 125.667,490.167 125,491.5C 123.883,490.051 123.216,488.384 123,486.5C 122.667,486.833 122.333,487.167 122,487.5C 121.275,485.842 120.108,485.342 118.5,486C 118.67,487.57 119.003,489.403 119.5,491.5C 116.387,491.935 115.721,490.935 117.5,488.5C 116.578,484.603 115.411,484.603 114,488.5C 111.333,485.833 108.667,485.833 106,488.5C 105.667,487.5 105.333,486.5 105,485.5C 102.571,486.029 100.738,487.363 99.5,489.5C 98.1667,488.167 96.8333,488.167 95.5,489.5C 94.3961,488.369 94.7295,487.535 96.5,487C 95.3333,486.5 94.5,485.667 94,484.5C 93.6411,487.544 92.9745,487.878 92,485.5C 91.6667,485.833 91.3333,486.167 91,486.5C 88.9548,484.645 86.6215,483.311 84,482.5C 83.5,483 83,483.5 82.5,484C 84.9494,484.725 87.2827,485.725 89.5,487C 88.8742,487.75 88.3742,488.584 88,489.5C 86.7488,486.184 85.0821,485.85 83,488.5C 80.4925,487.933 77.9925,487.6 75.5,487.5C 74.8076,488.025 74.3076,488.692 74,489.5C 73.6924,488.692 73.1924,488.025 72.5,487.5C 70.9579,488.747 69.4579,488.747 68,487.5C 66.3333,490.167 64.6667,490.167 63,487.5C 61.2028,490.096 59.8695,489.763 59,486.5C 58.3333,490.5 57.6667,490.5 57,486.5C 56.5848,488.291 55.5848,489.624 54,490.5C 52.4905,488.792 50.9905,487.126 49.5,485.5C 49.1203,487.021 48.9536,488.687 49,490.5C 48.3333,489.167 47.6667,487.833 47,486.5C 46.4087,489.145 45.0753,489.811 43,488.5C 42.3333,489.167 41.6667,489.833 41,490.5C 40.5,490.333 40,490.167 39.5,490C 40.4506,489.282 40.6172,488.449 40,487.5C 37.6808,487.275 35.6808,485.942 34,483.5C 33.4644,485.567 33.9644,487.401 35.5,489C 35,489.5 34.5,490 34,490.5C 33,488.167 32,485.833 31,483.5C 30.6929,486.876 28.8595,488.21 25.5,487.5C 24.5122,466.909 24.1789,446.242 24.5,425.5C 25.82,425.447 27.1534,425.447 28.5,425.5C 28.8333,425.167 29.1667,424.833 29.5,424.5C 28.675,423.614 27.675,423.281 26.5,423.5C 26.3505,422.448 26.5172,421.448 27,420.5C 28.9357,421.153 30.769,422.319 32.5,424C 30.0989,424.805 30.2656,425.638 33,426.5C 33.4186,425.328 34.0853,424.328 35,423.5C 36.5782,428.154 38.5782,428.487 41,424.5C 41.3333,425.5 41.6667,426.5 42,427.5C 42.444,424.389 43.7773,421.723 46,419.5C 46.4012,421.521 47.5679,422.855 49.5,423.5C 49.5331,422.011 50.0331,420.678 51,419.5C 51.2896,421.044 51.9563,422.377 53,423.5C 54.1475,422.542 55.1475,422.875 56,424.5C 59.1237,423.816 60.9571,422.816 61.5,421.5C 61.281,422.675 61.6143,423.675 62.5,424.5C 64.9772,420.478 66.3106,420.478 66.5,424.5C 67.086,424.291 67.586,423.957 68,423.5C 70.0581,424.109 70.8914,425.109 70.5,426.5C 71.5,425.167 72.5,423.833 73.5,422.5C 76.4428,423.975 79.1094,423.642 81.5,421.5 Z"/></g>
<g><path style="opacity:1" fill="#340041" d="M 225.5,408.5 C 226.326,412.982 226.826,417.649 227,422.5C 227.853,424.125 228.853,424.458 230,423.5C 231.487,424.253 231.654,425.086 230.5,426C 232.027,427.632 233.693,427.799 235.5,426.5C 234.494,425.604 234.494,424.938 235.5,424.5C 236.192,425.025 236.692,425.692 237,426.5C 237.419,425.328 238.085,424.328 239,423.5C 239.667,424.833 240.333,424.833 241,423.5C 242.204,424.471 242.704,425.471 242.5,426.5C 244.167,425.167 245.833,423.833 247.5,422.5C 248.59,423.391 248.59,424.391 247.5,425.5C 249.341,426.23 251.175,426.897 253,427.5C 253.5,427 254,426.5 254.5,426C 252.752,425.92 251.085,425.087 249.5,423.5C 250.758,424.016 251.758,423.35 252.5,421.5C 253.167,421.833 253.833,422.167 254.5,422.5C 256.508,420.238 256.841,420.738 255.5,424C 256.784,424.684 257.951,424.517 259,423.5C 259.308,424.308 259.808,424.975 260.5,425.5C 260.533,424.011 261.033,422.678 262,421.5C 262.689,422.357 263.522,423.023 264.5,423.5C 265.842,422.098 266.676,422.431 267,424.5C 268.395,423.185 269.395,423.519 270,425.5C 270.753,422.173 272.253,422.173 274.5,425.5C 274.654,424.091 274.821,422.424 275,420.5C 276.605,422.825 278.272,425.158 280,427.5C 280.617,426.551 280.451,425.718 279.5,425C 282.149,424.206 284.316,422.706 286,420.5C 286.333,421.5 286.667,422.5 287,423.5C 288.716,423.589 290.549,423.256 292.5,422.5C 292.296,423.529 292.796,424.529 294,425.5C 294.333,425.167 294.667,424.833 295,424.5C 297.224,426.054 299.724,427.054 302.5,427.5C 304.628,426.462 305.628,425.129 305.5,423.5C 307.434,423.901 308.934,424.901 310,426.5C 310.953,424.408 312.286,424.075 314,425.5C 314.691,423.109 315.691,423.109 317,425.5C 319.432,424.707 321.766,424.374 324,424.5C 324.333,425.167 324.667,425.833 325,426.5C 325.085,424.915 325.251,423.582 325.5,422.5C 327.069,423.714 327.902,425.381 328,427.5C 329.679,424.301 331.679,423.967 334,426.5C 334.617,425.551 334.451,424.718 333.5,424C 334.549,423.508 335.549,423.674 336.5,424.5C 338.465,421.88 339.965,422.214 341,425.5C 343.98,426.204 347.146,426.204 350.5,425.5C 351.5,426.167 352.5,426.833 353.5,427.5C 353.762,425.868 352.762,424.701 350.5,424C 351.667,423.5 352.5,422.667 353,421.5C 355.416,423.812 358.25,425.479 361.5,426.5C 362.647,426.182 363.481,425.516 364,424.5C 364.718,425.451 365.551,425.617 366.5,425C 365.672,424.085 364.672,423.419 363.5,423C 365.51,420.958 367.176,421.291 368.5,424C 370.521,424.14 372.355,424.307 374,424.5C 375.963,421.054 377.296,421.054 378,424.5C 378.333,424.167 378.667,423.833 379,423.5C 380.347,427.375 381.514,427.375 382.5,423.5C 383.425,424.641 384.259,424.641 385,423.5C 385.333,425.167 385.667,426.833 386,428.5C 386.333,427.833 386.667,427.167 387,426.5C 388,427.5 389,428.5 390,429.5C 390.92,429.07 391.753,428.736 392.5,428.5C 391.049,427.094 389.716,425.594 388.5,424C 389.167,423.833 389.833,423.667 390.5,423.5C 391.786,423.852 392.619,424.518 393,425.5C 393.945,425.095 394.612,424.428 395,423.5C 395.317,425.301 395.984,425.634 397,424.5C 398.688,426.045 400.688,427.045 403,427.5C 403.725,425.842 404.892,425.342 406.5,426C 405.549,426.718 405.383,427.551 406,428.5C 407.708,426.457 409.708,424.79 412,423.5C 412.333,424.5 412.667,425.5 413,426.5C 413.417,425.244 414.25,424.577 415.5,424.5C 420.984,455.302 438.318,475.968 467.5,486.5C 466.141,487.007 465.141,488.007 464.5,489.5C 463.522,489.023 462.689,488.357 462,487.5C 461.667,488.167 461.333,488.833 461,489.5C 458.641,488.28 457.141,486.947 456.5,485.5C 454.912,486.01 453.745,487.01 453,488.5C 452.667,487.833 452.333,487.167 452,486.5C 449.457,487.207 447.291,488.54 445.5,490.5C 444.18,488.73 442.68,488.397 441,489.5C 440.019,486.345 438.685,486.012 437,488.5C 431.521,488.328 427.021,487.328 423.5,485.5C 422.904,486.716 422.737,488.049 423,489.5C 421.984,488.366 421.317,488.699 421,490.5C 420.667,489.5 420.333,488.5 420,487.5C 418.883,488.949 418.216,490.616 418,492.5C 417.228,491.151 416.061,490.318 414.5,490C 416.8,486.956 415.966,486.123 412,487.5C 411.05,486.978 410.216,486.311 409.5,485.5C 408.636,487.197 407.303,488.363 405.5,489C 406.34,490.666 405.84,490.833 404,489.5C 402.684,492.028 401.517,492.028 400.5,489.5C 399.833,490.167 399.167,490.833 398.5,491.5C 397.702,489.922 397.202,488.256 397,486.5C 395.434,487.061 394.101,486.394 393,484.5C 391.314,487.022 389.981,486.689 389,483.5C 388.722,484.416 388.222,485.082 387.5,485.5C 368.939,450.222 339.939,436.389 300.5,444C 277.866,451.804 261.866,466.638 252.5,488.5C 252.631,487.761 252.464,487.094 252,486.5C 250.195,487.41 248.362,488.41 246.5,489.5C 245.5,488.167 244.5,488.167 243.5,489.5C 242.676,487.252 241.676,487.086 240.5,489C 241.451,489.718 241.617,490.551 241,491.5C 239.667,490.167 238.333,488.833 237,487.5C 235.667,488.167 234.667,489.167 234,490.5C 232.563,488.779 233.063,487.279 235.5,486C 235.167,485.833 234.833,485.667 234.5,485.5C 232.833,486.833 231.167,488.167 229.5,489.5C 228.833,488.833 228.167,488.167 227.5,487.5C 226.575,488.641 225.741,488.641 225,487.5C 224.085,488.328 223.419,489.328 223,490.5C 221.683,488.268 220.85,486.268 220.5,484.5C 219.201,485.09 218.368,486.09 218,487.5C 217.667,487.167 217.333,486.833 217,486.5C 216.667,487.5 216.333,488.5 216,489.5C 214.783,488.614 213.449,487.614 212,486.5C 210.956,487.623 210.29,488.956 210,490.5C 209.692,489.692 209.192,489.025 208.5,488.5C 205.674,489.871 204.174,488.871 204,485.5C 203.716,487.886 202.716,488.552 201,487.5C 199.867,489.211 198.367,489.711 196.5,489C 197.517,487.951 197.684,486.784 197,485.5C 195.503,488.468 193.837,488.801 192,486.5C 189.861,487.236 187.861,488.236 186,489.5C 185.383,488.551 185.549,487.718 186.5,487C 185.451,486.508 184.451,486.674 183.5,487.5C 181.514,485.217 180.347,485.884 180,489.5C 178.731,488.095 178.231,486.429 178.5,484.5C 211.39,470.091 227.057,444.758 225.5,408.5 Z"/></g>
<g><path style="opacity:1" fill="#330041" d="M 616.5,427.5 C 616.774,448.189 616.441,468.856 615.5,489.5C 613.83,489.249 612.33,488.582 611,487.5C 609.148,491.001 607.315,490.668 605.5,486.5C 608.131,484.995 607.797,484.329 604.5,484.5C 604.5,486.833 604.5,489.167 604.5,491.5C 603.448,491.649 602.448,491.483 601.5,491C 603.363,489.582 603.863,487.749 603,485.5C 602.766,490.087 601.1,490.421 598,486.5C 597.239,489.431 595.406,491.097 592.5,491.5C 592.33,490.178 592.663,489.011 593.5,488C 592.23,487.1 591.23,485.934 590.5,484.5C 590.167,485.167 589.833,485.833 589.5,486.5C 588.572,484.665 587.406,484.332 586,485.5C 585.667,484.833 585.333,484.167 585,483.5C 584.316,484.784 584.483,485.951 585.5,487C 584.552,487.483 583.552,487.649 582.5,487.5C 582.671,490.797 582.005,491.131 580.5,488.5C 581.833,487.38 582.333,486.047 582,484.5C 579.626,486.116 577.793,487.783 576.5,489.5C 575.289,488.726 575.289,487.893 576.5,487C 575.365,486.251 574.365,486.417 573.5,487.5C 574.326,488.451 574.492,489.451 574,490.5C 572.622,488.787 570.955,487.453 569,486.5C 568.667,487.167 568.333,487.833 568,488.5C 565.667,488.167 563.333,487.833 561,487.5C 560.086,491.185 559.419,490.852 559,486.5C 556.684,487.367 554.684,486.701 553,484.5C 552.667,485.167 552.333,485.833 552,486.5C 549.944,484.681 547.777,484.015 545.5,484.5C 542.81,485.169 541.477,486.503 541.5,488.5C 539.941,487.926 538.441,487.26 537,486.5C 536.667,486.833 536.333,487.167 536,487.5C 535.667,486.167 535.333,484.833 535,483.5C 532.39,485.417 529.89,488.083 527.5,491.5C 526.522,491.023 525.689,490.357 525,489.5C 524.667,490.167 524.333,490.833 524,491.5C 523.213,490.289 522.546,489.289 522,488.5C 520.739,488.759 519.739,489.426 519,490.5C 518,489.5 517,488.5 516,487.5C 515.667,488.167 515.333,488.833 515,489.5C 514.261,488.426 513.261,487.759 512,487.5C 510.85,488.424 509.85,488.424 509,487.5C 508.333,488.167 507.667,488.833 507,489.5C 505.599,487.808 503.766,487.141 501.5,487.5C 532.296,479.369 551.296,459.702 558.5,428.5C 559.404,427.791 559.737,426.791 559.5,425.5C 561.143,425.48 562.476,426.147 563.5,427.5C 564.192,426.975 564.692,426.308 565,425.5C 565.333,425.833 565.667,426.167 566,426.5C 565.737,425.049 565.904,423.716 566.5,422.5C 569.461,423.183 569.795,424.016 567.5,425C 569.076,425.44 570.41,426.273 571.5,427.5C 572.59,426.273 573.924,425.44 575.5,425C 574.833,424.667 574.167,424.333 573.5,424C 575.818,423.658 577.985,424.158 580,425.5C 581.512,424.743 582.846,423.743 584,422.5C 584.333,423.167 584.667,423.833 585,424.5C 585.667,423.167 586.333,423.167 587,424.5C 587.249,423.376 587.749,422.376 588.5,421.5C 590.836,422.594 590.836,423.927 588.5,425.5C 590.259,426.754 591.759,426.421 593,424.5C 593.915,425.328 594.581,426.328 595,427.5C 595.085,425.915 595.251,424.582 595.5,423.5C 596.281,424.737 597.281,425.737 598.5,426.5C 599.068,424.565 600.235,423.232 602,422.5C 603.811,423.424 603.645,424.257 601.5,425C 603.313,424.954 604.979,425.12 606.5,425.5C 608.733,425.136 610.566,424.136 612,422.5C 612.454,424.771 613.121,427.104 614,429.5C 614.417,428.244 615.25,427.577 616.5,427.5 Z"/></g>
<g><path style="opacity:1" fill="#fd3232" d="M 387.5,485.5 C 394.815,506.539 393.815,527.206 384.5,547.5C 365.813,577.501 338.813,589.668 303.5,584C 285.025,578.673 270.358,568.173 259.5,552.5C 247.818,532.174 245.485,510.841 252.5,488.5C 261.866,466.638 277.866,451.804 300.5,444C 339.939,436.389 368.939,450.222 387.5,485.5 Z"/></g>
<g><path style="opacity:0.971" fill="#ef981e" d="M 24.5,168.5 C 24.5,194.5 24.5,220.5 24.5,246.5C 24.5,306.167 24.5,365.833 24.5,425.5C 24.1789,446.242 24.5122,466.909 25.5,487.5C 25.5,492.833 25.5,498.167 25.5,503.5C 26.0289,506.604 25.0289,508.937 22.5,510.5C 21.0944,509.332 19.9277,509.665 19,511.5C 18.3848,509.884 17.3848,508.551 16,507.5C 14.4702,508.636 13.1369,509.636 12,510.5C 11.6322,509.09 10.7989,508.09 9.5,507.5C 9.33094,508.397 8.99761,509.397 8.5,510.5C 5.84288,508.886 4.00955,509.552 3,512.5C 2.61742,511.944 2.11742,511.611 1.5,511.5C 0.919521,505.699 0.252854,500.032 -0.5,494.5C -0.5,474.167 -0.5,453.833 -0.5,433.5C 1.82112,433.658 3.65445,434.658 5,436.5C 6,435.167 7,435.167 8,436.5C 8.68909,435.643 9.52242,434.977 10.5,434.5C 10.2964,435.529 10.7964,436.529 12,437.5C 13.1437,435.083 14.8103,434.416 17,435.5C 17.6259,433.009 18.4593,433.009 19.5,435.5C 20.7362,434.754 22.0695,434.421 23.5,434.5C 23.5,402.5 23.5,370.5 23.5,338.5C 23.5,299.167 23.5,259.833 23.5,220.5C 23.17,202.992 23.5033,185.659 24.5,168.5 Z"/></g>
<g><path style="opacity:0.971" fill="#ef971e" d="M 616.5,161.5 C 617.497,180.326 617.83,199.326 617.5,218.5C 617.5,258.5 617.5,298.5 617.5,338.5C 617.167,370.174 617.5,401.84 618.5,433.5C 619.086,433.291 619.586,432.957 620,432.5C 620.249,433.624 620.749,434.624 621.5,435.5C 622.541,433.009 623.374,433.009 624,435.5C 626.702,433.692 628.702,434.692 630,438.5C 630.692,437.975 631.192,437.308 631.5,436.5C 629.252,435.676 629.086,434.676 631,433.5C 632.791,435.513 634.125,435.513 635,433.5C 636.86,436.875 639.026,437.209 641.5,434.5C 641.5,454.5 641.5,474.5 641.5,494.5C 640.833,499.5 640.167,504.5 639.5,509.5C 638.288,511.554 636.621,511.554 634.5,509.5C 633.212,511.475 631.545,511.475 629.5,509.5C 627.5,510.167 625.5,510.833 623.5,511.5C 622.289,510.726 622.289,509.893 623.5,509C 621.567,508.749 619.734,508.249 618,507.5C 617.581,508.672 616.915,509.672 616,510.5C 615.503,508.19 615.337,505.857 615.5,503.5C 615.5,498.833 615.5,494.167 615.5,489.5C 616.441,468.856 616.774,448.189 616.5,427.5C 616.5,399.167 616.5,370.833 616.5,342.5C 616.5,309.167 616.5,275.833 616.5,242.5C 616.5,215.5 616.5,188.5 616.5,161.5 Z"/></g>
<g><path style="opacity:1" fill="#2e003b" d="M 132.5,485.5 C 147.894,489.664 163.227,489.331 178.5,484.5C 178.231,486.429 178.731,488.095 180,489.5C 180.347,485.884 181.514,485.217 183.5,487.5C 184.451,486.674 185.451,486.508 186.5,487C 185.549,487.718 185.383,488.551 186,489.5C 187.861,488.236 189.861,487.236 192,486.5C 193.837,488.801 195.503,488.468 197,485.5C 197.684,486.784 197.517,487.951 196.5,489C 198.367,489.711 199.867,489.211 201,487.5C 202.716,488.552 203.716,487.886 204,485.5C 204.174,488.871 205.674,489.871 208.5,488.5C 209.192,489.025 209.692,489.692 210,490.5C 210.29,488.956 210.956,487.623 212,486.5C 213.449,487.614 214.783,488.614 216,489.5C 216.333,488.5 216.667,487.5 217,486.5C 217.333,486.833 217.667,487.167 218,487.5C 218.368,486.09 219.201,485.09 220.5,484.5C 220.85,486.268 221.683,488.268 223,490.5C 223.419,489.328 224.085,488.328 225,487.5C 225.741,488.641 226.575,488.641 227.5,487.5C 228.167,488.167 228.833,488.833 229.5,489.5C 231.167,488.167 232.833,486.833 234.5,485.5C 234.833,485.667 235.167,485.833 235.5,486C 233.063,487.279 232.563,488.779 234,490.5C 234.667,489.167 235.667,488.167 237,487.5C 238.333,488.833 239.667,490.167 241,491.5C 241.617,490.551 241.451,489.718 240.5,489C 241.676,487.086 242.676,487.252 243.5,489.5C 244.5,488.167 245.5,488.167 246.5,489.5C 248.362,488.41 250.195,487.41 252,486.5C 252.464,487.094 252.631,487.761 252.5,488.5C 245.485,510.841 247.818,532.174 259.5,552.5C 259.217,553.289 258.717,553.956 258,554.5C 256.089,554.255 254.089,554.255 252,554.5C 252.077,553.262 251.911,552.262 251.5,551.5C 250.742,552.811 249.742,553.311 248.5,553C 249.313,551.686 250.313,550.519 251.5,549.5C 251.192,548.692 250.692,548.025 250,547.5C 248.261,549.741 246.094,551.408 243.5,552.5C 242.749,551.624 242.249,550.624 242,549.5C 239.334,550.893 236.834,552.559 234.5,554.5C 234.089,553.738 233.923,552.738 234,551.5C 233.439,552.022 232.772,552.355 232,552.5C 230.989,552.108 230.489,551.441 230.5,550.5C 229.833,551.5 229.167,552.5 228.5,553.5C 227.494,553.062 227.494,552.396 228.5,551.5C 226.704,550.859 225.204,549.859 224,548.5C 222.725,552.092 221.058,552.092 219,548.5C 218.74,550.618 217.74,552.284 216,553.5C 215.383,552.551 215.549,551.718 216.5,551C 215.584,550.626 214.75,550.126 214,549.5C 212.318,551.599 210.652,552.932 209,553.5C 208.333,551.5 207,550.167 205,549.5C 204.667,550.167 204.333,550.833 204,551.5C 201.973,550.788 200.973,549.788 201,548.5C 198.399,549.764 196.066,551.431 194,553.5C 193.683,551.699 193.016,551.366 192,552.5C 191.25,551.874 190.416,551.374 189.5,551C 189.833,550.667 190.167,550.333 190.5,550C 187.77,549.272 185.103,549.438 182.5,550.5C 181.667,549.5 180.833,548.5 180,547.5C 177.499,547.596 175.333,548.263 173.5,549.5C 174.289,551.488 175.455,551.821 177,550.5C 177.333,551.167 177.667,551.833 178,552.5C 180.333,551.833 182.667,551.167 185,550.5C 185.667,551.5 185.667,552.5 185,553.5C 182.333,552.167 180.333,552.833 179,555.5C 177.691,553.109 176.691,553.109 176,555.5C 173.049,553.826 170.549,551.992 168.5,550C 168.833,549.667 169.167,549.333 169.5,549C 168.256,548.544 167.423,549.044 167,550.5C 166.224,547.351 164.724,546.851 162.5,549C 165.849,549.089 166.349,550.256 164,552.5C 161.53,551.6 158.863,550.266 156,548.5C 155.667,549.5 155.333,550.5 155,551.5C 154.08,551.93 153.247,552.264 152.5,552.5C 153.025,553.192 153.692,553.692 154.5,554C 152.125,556.407 151.125,555.907 151.5,552.5C 149.208,552.756 147.041,552.423 145,551.5C 143.092,554.332 142.259,553.999 142.5,550.5C 140.876,550.36 139.71,551.027 139,552.5C 137.984,551.366 137.317,551.699 137,553.5C 135.513,552.747 135.346,551.914 136.5,551C 134.89,549.505 133.224,549.339 131.5,550.5C 130.808,549.975 130.308,549.308 130,548.5C 129.289,550.367 129.789,551.867 131.5,553C 131.167,553.333 130.833,553.667 130.5,554C 129.065,553.689 127.732,553.855 126.5,554.5C 126.167,553.833 125.833,553.167 125.5,552.5C 123.051,552.98 120.885,553.98 119,555.5C 117.561,553.725 116.561,551.725 116,549.5C 115.549,551.929 114.715,552.096 113.5,550C 110.508,548.912 109.508,549.579 110.5,552C 109.268,555.39 108.434,555.223 108,551.5C 107.396,553.686 106.23,553.852 104.5,552C 105.672,551.581 106.672,550.915 107.5,550C 104.983,549.743 102.65,550.41 100.5,552C 99.8878,553.303 99.5545,554.47 99.5,555.5C 98.3333,553.833 97.1667,552.167 96,550.5C 92.8665,555.778 91.1998,555.111 91,548.5C 90.7837,550.384 90.117,552.051 89,553.5C 86.6763,552.193 85.343,550.193 85,547.5C 83.3831,548.536 83.2164,549.703 84.5,551C 82.2557,553.349 81.0891,552.849 81,549.5C 80.6827,551.301 80.016,551.634 79,550.5C 76,551.833 73,553.167 70,554.5C 67.2152,553.105 64.3819,551.772 61.5,550.5C 61.1667,551.167 60.8333,551.833 60.5,552.5C 58.2412,550.455 55.7412,548.789 53,547.5C 50.589,548.624 48.4223,550.124 46.5,552C 47.4491,552.617 48.2825,552.451 49,551.5C 49.5628,552.725 49.2295,553.725 48,554.5C 46.4152,553.624 45.4152,552.291 45,550.5C 44.1597,553.464 43.1597,553.797 42,551.5C 41.1841,552.823 40.0174,553.489 38.5,553.5C 31.1778,537.521 26.8445,520.854 25.5,503.5C 25.5,498.167 25.5,492.833 25.5,487.5C 28.8595,488.21 30.6929,486.876 31,483.5C 32,485.833 33,488.167 34,490.5C 34.5,490 35,489.5 35.5,489C 33.9644,487.401 33.4644,485.567 34,483.5C 35.6808,485.942 37.6808,487.275 40,487.5C 40.6172,488.449 40.4506,489.282 39.5,490C 40,490.167 40.5,490.333 41,490.5C 41.6667,489.833 42.3333,489.167 43,488.5C 45.0753,489.811 46.4087,489.145 47,486.5C 47.6667,487.833 48.3333,489.167 49,490.5C 48.9536,488.687 49.1203,487.021 49.5,485.5C 50.9905,487.126 52.4905,488.792 54,490.5C 55.5848,489.624 56.5848,488.291 57,486.5C 57.6667,490.5 58.3333,490.5 59,486.5C 59.8695,489.763 61.2028,490.096 63,487.5C 64.6667,490.167 66.3333,490.167 68,487.5C 69.4579,488.747 70.9579,488.747 72.5,487.5C 73.1924,488.025 73.6924,488.692 74,489.5C 74.3076,488.692 74.8076,488.025 75.5,487.5C 77.9925,487.6 80.4925,487.933 83,488.5C 85.0821,485.85 86.7488,486.184 88,489.5C 88.3742,488.584 88.8742,487.75 89.5,487C 87.2827,485.725 84.9494,484.725 82.5,484C 83,483.5 83.5,483 84,482.5C 86.6215,483.311 88.9548,484.645 91,486.5C 91.3333,486.167 91.6667,485.833 92,485.5C 92.9745,487.878 93.6411,487.544 94,484.5C 94.5,485.667 95.3333,486.5 96.5,487C 94.7295,487.535 94.3961,488.369 95.5,489.5C 96.8333,488.167 98.1667,488.167 99.5,489.5C 100.738,487.363 102.571,486.029 105,485.5C 105.333,486.5 105.667,487.5 106,488.5C 108.667,485.833 111.333,485.833 114,488.5C 115.411,484.603 116.578,484.603 117.5,488.5C 115.721,490.935 116.387,491.935 119.5,491.5C 119.003,489.403 118.67,487.57 118.5,486C 120.108,485.342 121.275,485.842 122,487.5C 122.333,487.167 122.667,486.833 123,486.5C 123.216,488.384 123.883,490.051 125,491.5C 125.667,490.167 126.333,488.833 127,487.5C 128.487,488.253 128.654,489.086 127.5,490C 128.416,490.374 129.25,490.874 130,491.5C 131.122,489.593 131.955,487.593 132.5,485.5 Z"/></g>
<g><path style="opacity:1" fill="#2e003b" d="M 467.5,486.5 C 478.779,488.634 490.113,488.967 501.5,487.5C 503.766,487.141 505.599,487.808 507,489.5C 507.667,488.833 508.333,488.167 509,487.5C 509.85,488.424 510.85,488.424 512,487.5C 513.261,487.759 514.261,488.426 515,489.5C 515.333,488.833 515.667,488.167 516,487.5C 517,488.5 518,489.5 519,490.5C 519.739,489.426 520.739,488.759 522,488.5C 522.546,489.289 523.213,490.289 524,491.5C 524.333,490.833 524.667,490.167 525,489.5C 525.689,490.357 526.522,491.023 527.5,491.5C 529.89,488.083 532.39,485.417 535,483.5C 535.333,484.833 535.667,486.167 536,487.5C 536.333,487.167 536.667,486.833 537,486.5C 538.441,487.26 539.941,487.926 541.5,488.5C 541.477,486.503 542.81,485.169 545.5,484.5C 547.777,484.015 549.944,484.681 552,486.5C 552.333,485.833 552.667,485.167 553,484.5C 554.684,486.701 556.684,487.367 559,486.5C 559.419,490.852 560.086,491.185 561,487.5C 563.333,487.833 565.667,488.167 568,488.5C 568.333,487.833 568.667,487.167 569,486.5C 570.955,487.453 572.622,488.787 574,490.5C 574.492,489.451 574.326,488.451 573.5,487.5C 574.365,486.417 575.365,486.251 576.5,487C 575.289,487.893 575.289,488.726 576.5,489.5C 577.793,487.783 579.626,486.116 582,484.5C 582.333,486.047 581.833,487.38 580.5,488.5C 582.005,491.131 582.671,490.797 582.5,487.5C 583.552,487.649 584.552,487.483 585.5,487C 584.483,485.951 584.316,484.784 585,483.5C 585.333,484.167 585.667,484.833 586,485.5C 587.406,484.332 588.572,484.665 589.5,486.5C 589.833,485.833 590.167,485.167 590.5,484.5C 591.23,485.934 592.23,487.1 593.5,488C 592.663,489.011 592.33,490.178 592.5,491.5C 595.406,491.097 597.239,489.431 598,486.5C 601.1,490.421 602.766,490.087 603,485.5C 603.863,487.749 603.363,489.582 601.5,491C 602.448,491.483 603.448,491.649 604.5,491.5C 604.5,489.167 604.5,486.833 604.5,484.5C 607.797,484.329 608.131,484.995 605.5,486.5C 607.315,490.668 609.148,491.001 611,487.5C 612.33,488.582 613.83,489.249 615.5,489.5C 615.5,494.167 615.5,498.833 615.5,503.5C 613.98,519.247 610.313,534.58 604.5,549.5C 603.178,549.33 602.011,549.663 601,550.5C 600.667,549.833 600.333,549.167 600,548.5C 599.667,550.167 599.333,551.833 599,553.5C 598.333,552.167 597.667,552.167 597,553.5C 596,552.167 595,550.833 594,549.5C 592.98,550.891 592.147,552.391 591.5,554C 590.552,554.483 589.552,554.649 588.5,554.5C 588.5,553.5 588.5,552.5 588.5,551.5C 589.552,551.649 590.552,551.483 591.5,551C 590.234,550.691 589.067,550.191 588,549.5C 587.683,551.301 587.016,551.634 586,550.5C 585.517,551.448 585.351,552.448 585.5,553.5C 583.508,553.672 581.842,553.005 580.5,551.5C 578.844,553.022 577.677,552.689 577,550.5C 576.085,551.328 575.419,552.328 575,553.5C 573.846,552.257 572.512,551.257 571,550.5C 570.342,552.108 570.842,553.275 572.5,554C 570.126,553.598 567.793,553.764 565.5,554.5C 564.459,552.009 563.626,552.009 563,554.5C 562.781,553.062 562.281,551.729 561.5,550.5C 560.914,550.709 560.414,551.043 560,551.5C 559.196,550.196 558.029,549.529 556.5,549.5C 554.997,550.523 553.497,551.523 552,552.5C 551.055,552.095 550.388,551.428 550,550.5C 544.931,555.229 541.598,554.229 540,547.5C 538.055,549.349 536.555,551.682 535.5,554.5C 533.267,554.136 531.434,553.136 530,551.5C 528.057,551.959 526.724,550.959 526,548.5C 525.077,549.759 524.243,551.092 523.5,552.5C 522.494,552.062 522.494,551.396 523.5,550.5C 522.135,549.544 520.635,548.878 519,548.5C 515.649,549.672 512.649,551.339 510,553.5C 509.395,551.519 508.395,551.185 507,552.5C 506.544,551.256 507.044,550.423 508.5,550C 507.833,549.833 507.167,549.667 506.5,549.5C 504.429,550.286 502.762,551.619 501.5,553.5C 498.167,550.833 494.833,550.833 491.5,553.5C 490.707,552.645 491.04,551.811 492.5,551C 490.508,550.426 489.008,549.259 488,547.5C 486.176,548.749 486.343,549.915 488.5,551C 488.018,552.008 487.852,553.175 488,554.5C 486.183,553.292 484.183,552.292 482,551.5C 481.586,551.957 481.086,552.291 480.5,552.5C 480.167,551.833 479.833,551.167 479.5,550.5C 478.751,552.012 477.584,553.012 476,553.5C 474.85,552.576 473.85,552.576 473,553.5C 472.333,549.5 471.667,549.5 471,553.5C 470.333,552.167 469.667,552.167 469,553.5C 468.066,550.035 466.566,549.702 464.5,552.5C 463.158,551.098 462.324,551.431 462,553.5C 460.442,552.655 459.442,553.321 459,555.5C 457.155,554.95 455.655,553.95 454.5,552.5C 455.247,552.264 456.08,551.93 457,551.5C 457.333,552.167 457.667,552.833 458,553.5C 459.564,551.37 459.564,549.37 458,547.5C 456.623,549.592 454.79,551.258 452.5,552.5C 451.201,551.91 450.368,550.91 450,549.5C 449.259,550.641 448.425,550.641 447.5,549.5C 445.5,550.833 443.833,552.5 442.5,554.5C 441.662,550.746 438.996,549.579 434.5,551C 436.795,551.984 436.461,552.817 433.5,553.5C 432.205,552.902 430.872,552.402 429.5,552C 430.833,551.333 430.833,550.667 429.5,550C 430.167,549.667 430.833,549.333 431.5,549C 430.216,548.316 429.049,548.483 428,549.5C 427.444,547.405 426.944,547.238 426.5,549C 428.512,550.152 428.678,551.318 427,552.5C 426.333,551.167 425.667,551.167 425,552.5C 424.667,551.5 424.333,550.5 424,549.5C 422.806,551.525 421.306,551.859 419.5,550.5C 418.396,551.631 418.729,552.465 420.5,553C 419.646,554.022 418.646,554.855 417.5,555.5C 417.901,553.217 417.401,550.884 416,548.5C 413.957,549.579 412.624,551.246 412,553.5C 411.333,552.167 410.667,552.167 410,553.5C 409.667,554.833 409.333,556.167 409,557.5C 408.5,556.333 407.667,555.5 406.5,555C 407.458,553.853 407.125,552.853 405.5,552C 406.236,548.801 405.403,548.635 403,551.5C 400.81,550.416 399.144,551.083 398,553.5C 396.783,552.614 395.449,551.614 394,550.5C 392.803,552.792 391.137,553.125 389,551.5C 388.298,550.205 387.631,548.872 387,547.5C 385.608,549.842 384.775,549.842 384.5,547.5C 393.815,527.206 394.815,506.539 387.5,485.5C 388.222,485.082 388.722,484.416 389,483.5C 389.981,486.689 391.314,487.022 393,484.5C 394.101,486.394 395.434,487.061 397,486.5C 397.202,488.256 397.702,489.922 398.5,491.5C 399.167,490.833 399.833,490.167 400.5,489.5C 401.517,492.028 402.684,492.028 404,489.5C 405.84,490.833 406.34,490.666 405.5,489C 407.303,488.363 408.636,487.197 409.5,485.5C 410.216,486.311 411.05,486.978 412,487.5C 415.966,486.123 416.8,486.956 414.5,490C 416.061,490.318 417.228,491.151 418,492.5C 418.216,490.616 418.883,488.949 420,487.5C 420.333,488.5 420.667,489.5 421,490.5C 421.317,488.699 421.984,488.366 423,489.5C 422.737,488.049 422.904,486.716 423.5,485.5C 427.021,487.328 431.521,488.328 437,488.5C 438.685,486.012 440.019,486.345 441,489.5C 442.68,488.397 444.18,488.73 445.5,490.5C 447.291,488.54 449.457,487.207 452,486.5C 452.333,487.167 452.667,487.833 453,488.5C 453.745,487.01 454.912,486.01 456.5,485.5C 457.141,486.947 458.641,488.28 461,489.5C 461.333,488.833 461.667,488.167 462,487.5C 462.689,488.357 463.522,489.023 464.5,489.5C 465.141,488.007 466.141,487.007 467.5,486.5 Z"/></g>
<g><path style="opacity:0.981" fill="#fb9103" d="M 25.5,503.5 C 26.8445,520.854 31.1778,537.521 38.5,553.5C 55.6121,586.104 82.2787,605.937 118.5,613C 128.155,614.109 137.822,615.109 147.5,616C 259.833,616.667 372.167,616.667 484.5,616C 516.794,617.562 546.127,609.229 572.5,591C 578.667,584.833 584.833,578.667 591,572.5C 596.126,565.206 600.626,557.539 604.5,549.5C 610.313,534.58 613.98,519.247 615.5,503.5C 615.337,505.857 615.503,508.19 616,510.5C 616.915,509.672 617.581,508.672 618,507.5C 619.734,508.249 621.567,508.749 623.5,509C 622.289,509.893 622.289,510.726 623.5,511.5C 625.5,510.833 627.5,510.167 629.5,509.5C 631.545,511.475 633.212,511.475 634.5,509.5C 636.621,511.554 638.288,511.554 639.5,509.5C 635.018,566.769 606.685,606.935 554.5,630C 534.865,636.416 514.865,640.249 494.5,641.5C 378.5,641.5 262.5,641.5 146.5,641.5C 126.135,640.249 106.135,636.416 86.5,630C 35.2501,607.207 6.91676,567.707 1.5,511.5C 2.11742,511.611 2.61742,511.944 3,512.5C 4.00955,509.552 5.84288,508.886 8.5,510.5C 8.99761,509.397 9.33094,508.397 9.5,507.5C 10.7989,508.09 11.6322,509.09 12,510.5C 13.1369,509.636 14.4702,508.636 16,507.5C 17.3848,508.551 18.3848,509.884 19,511.5C 19.9277,509.665 21.0944,509.332 22.5,510.5C 25.0289,508.937 26.0289,506.604 25.5,503.5 Z"/></g>
<g><path style="opacity:1" fill="#2a0035" d="M 259.5,552.5 C 270.358,568.173 285.025,578.673 303.5,584C 338.813,589.668 365.813,577.501 384.5,547.5C 384.775,549.842 385.608,549.842 387,547.5C 387.631,548.872 388.298,550.205 389,551.5C 391.137,553.125 392.803,552.792 394,550.5C 395.449,551.614 396.783,552.614 398,553.5C 399.144,551.083 400.81,550.416 403,551.5C 405.403,548.635 406.236,548.801 405.5,552C 407.125,552.853 407.458,553.853 406.5,555C 407.667,555.5 408.5,556.333 409,557.5C 409.333,556.167 409.667,554.833 410,553.5C 410.667,552.167 411.333,552.167 412,553.5C 412.624,551.246 413.957,549.579 416,548.5C 417.401,550.884 417.901,553.217 417.5,555.5C 418.646,554.855 419.646,554.022 420.5,553C 418.729,552.465 418.396,551.631 419.5,550.5C 421.306,551.859 422.806,551.525 424,549.5C 424.333,550.5 424.667,551.5 425,552.5C 425.667,551.167 426.333,551.167 427,552.5C 428.678,551.318 428.512,550.152 426.5,549C 426.944,547.238 427.444,547.405 428,549.5C 429.049,548.483 430.216,548.316 431.5,549C 430.833,549.333 430.167,549.667 429.5,550C 430.833,550.667 430.833,551.333 429.5,552C 430.872,552.402 432.205,552.902 433.5,553.5C 436.461,552.817 436.795,551.984 434.5,551C 438.996,549.579 441.662,550.746 442.5,554.5C 443.833,552.5 445.5,550.833 447.5,549.5C 448.425,550.641 449.259,550.641 450,549.5C 450.368,550.91 451.201,551.91 452.5,552.5C 454.79,551.258 456.623,549.592 458,547.5C 459.564,549.37 459.564,551.37 458,553.5C 457.667,552.833 457.333,552.167 457,551.5C 456.08,551.93 455.247,552.264 454.5,552.5C 455.655,553.95 457.155,554.95 459,555.5C 459.442,553.321 460.442,552.655 462,553.5C 462.324,551.431 463.158,551.098 464.5,552.5C 466.566,549.702 468.066,550.035 469,553.5C 469.667,552.167 470.333,552.167 471,553.5C 471.667,549.5 472.333,549.5 473,553.5C 473.85,552.576 474.85,552.576 476,553.5C 477.584,553.012 478.751,552.012 479.5,550.5C 479.833,551.167 480.167,551.833 480.5,552.5C 481.086,552.291 481.586,551.957 482,551.5C 484.183,552.292 486.183,553.292 488,554.5C 487.852,553.175 488.018,552.008 488.5,551C 486.343,549.915 486.176,548.749 488,547.5C 489.008,549.259 490.508,550.426 492.5,551C 491.04,551.811 490.707,552.645 491.5,553.5C 494.833,550.833 498.167,550.833 501.5,553.5C 502.762,551.619 504.429,550.286 506.5,549.5C 507.167,549.667 507.833,549.833 508.5,550C 507.044,550.423 506.544,551.256 507,552.5C 508.395,551.185 509.395,551.519 510,553.5C 512.649,551.339 515.649,549.672 519,548.5C 520.635,548.878 522.135,549.544 523.5,550.5C 522.494,551.396 522.494,552.062 523.5,552.5C 524.243,551.092 525.077,549.759 526,548.5C 526.724,550.959 528.057,551.959 530,551.5C 531.434,553.136 533.267,554.136 535.5,554.5C 536.555,551.682 538.055,549.349 540,547.5C 541.598,554.229 544.931,555.229 550,550.5C 550.388,551.428 551.055,552.095 552,552.5C 553.497,551.523 554.997,550.523 556.5,549.5C 558.029,549.529 559.196,550.196 560,551.5C 560.414,551.043 560.914,550.709 561.5,550.5C 562.281,551.729 562.781,553.062 563,554.5C 563.626,552.009 564.459,552.009 565.5,554.5C 567.793,553.764 570.126,553.598 572.5,554C 570.842,553.275 570.342,552.108 571,550.5C 572.512,551.257 573.846,552.257 575,553.5C 575.419,552.328 576.085,551.328 577,550.5C 577.677,552.689 578.844,553.022 580.5,551.5C 581.842,553.005 583.508,553.672 585.5,553.5C 585.351,552.448 585.517,551.448 586,550.5C 587.016,551.634 587.683,551.301 588,549.5C 589.067,550.191 590.234,550.691 591.5,551C 590.552,551.483 589.552,551.649 588.5,551.5C 588.5,552.5 588.5,553.5 588.5,554.5C 589.552,554.649 590.552,554.483 591.5,554C 592.147,552.391 592.98,550.891 594,549.5C 595,550.833 596,552.167 597,553.5C 597.667,552.167 598.333,552.167 599,553.5C 599.333,551.833 599.667,550.167 600,548.5C 600.333,549.167 600.667,549.833 601,550.5C 602.011,549.663 603.178,549.33 604.5,549.5C 600.626,557.539 596.126,565.206 591,572.5C 584.833,578.667 578.667,584.833 572.5,591C 546.127,609.229 516.794,617.562 484.5,616C 372.167,616.667 259.833,616.667 147.5,616C 137.822,615.109 128.155,614.109 118.5,613C 82.2787,605.937 55.6121,586.104 38.5,553.5C 40.0174,553.489 41.1841,552.823 42,551.5C 43.1597,553.797 44.1597,553.464 45,550.5C 45.4152,552.291 46.4152,553.624 48,554.5C 49.2295,553.725 49.5628,552.725 49,551.5C 48.2825,552.451 47.4491,552.617 46.5,552C 48.4223,550.124 50.589,548.624 53,547.5C 55.7412,548.789 58.2412,550.455 60.5,552.5C 60.8333,551.833 61.1667,551.167 61.5,550.5C 64.3819,551.772 67.2152,553.105 70,554.5C 73,553.167 76,551.833 79,550.5C 80.016,551.634 80.6827,551.301 81,549.5C 81.0891,552.849 82.2557,553.349 84.5,551C 83.2164,549.703 83.3831,548.536 85,547.5C 85.343,550.193 86.6763,552.193 89,553.5C 90.117,552.051 90.7837,550.384 91,548.5C 91.1998,555.111 92.8665,555.778 96,550.5C 97.1667,552.167 98.3333,553.833 99.5,555.5C 99.5545,554.47 99.8878,553.303 100.5,552C 102.65,550.41 104.983,549.743 107.5,550C 106.672,550.915 105.672,551.581 104.5,552C 106.23,553.852 107.396,553.686 108,551.5C 108.434,555.223 109.268,555.39 110.5,552C 109.508,549.579 110.508,548.912 113.5,550C 114.715,552.096 115.549,551.929 116,549.5C 116.561,551.725 117.561,553.725 119,555.5C 120.885,553.98 123.051,552.98 125.5,552.5C 125.833,553.167 126.167,553.833 126.5,554.5C 127.732,553.855 129.065,553.689 130.5,554C 130.833,553.667 131.167,553.333 131.5,553C 129.789,551.867 129.289,550.367 130,548.5C 130.308,549.308 130.808,549.975 131.5,550.5C 133.224,549.339 134.89,549.505 136.5,551C 135.346,551.914 135.513,552.747 137,553.5C 137.317,551.699 137.984,551.366 139,552.5C 139.71,551.027 140.876,550.36 142.5,550.5C 142.259,553.999 143.092,554.332 145,551.5C 147.041,552.423 149.208,552.756 151.5,552.5C 151.125,555.907 152.125,556.407 154.5,554C 153.692,553.692 153.025,553.192 152.5,552.5C 153.247,552.264 154.08,551.93 155,551.5C 155.333,550.5 155.667,549.5 156,548.5C 158.863,550.266 161.53,551.6 164,552.5C 166.349,550.256 165.849,549.089 162.5,549C 164.724,546.851 166.224,547.351 167,550.5C 167.423,549.044 168.256,548.544 169.5,549C 169.167,549.333 168.833,549.667 168.5,550C 170.549,551.992 173.049,553.826 176,555.5C 176.691,553.109 177.691,553.109 179,555.5C 180.333,552.833 182.333,552.167 185,553.5C 185.667,552.5 185.667,551.5 185,550.5C 182.667,551.167 180.333,551.833 178,552.5C 177.667,551.833 177.333,551.167 177,550.5C 175.455,551.821 174.289,551.488 173.5,549.5C 175.333,548.263 177.499,547.596 180,547.5C 180.833,548.5 181.667,549.5 182.5,550.5C 185.103,549.438 187.77,549.272 190.5,550C 190.167,550.333 189.833,550.667 189.5,551C 190.416,551.374 191.25,551.874 192,552.5C 193.016,551.366 193.683,551.699 194,553.5C 196.066,551.431 198.399,549.764 201,548.5C 200.973,549.788 201.973,550.788 204,551.5C 204.333,550.833 204.667,550.167 205,549.5C 207,550.167 208.333,551.5 209,553.5C 210.652,552.932 212.318,551.599 214,549.5C 214.75,550.126 215.584,550.626 216.5,551C 215.549,551.718 215.383,552.551 216,553.5C 217.74,552.284 218.74,550.618 219,548.5C 221.058,552.092 222.725,552.092 224,548.5C 225.204,549.859 226.704,550.859 228.5,551.5C 227.494,552.396 227.494,553.062 228.5,553.5C 229.167,552.5 229.833,551.5 230.5,550.5C 230.489,551.441 230.989,552.108 232,552.5C 232.772,552.355 233.439,552.022 234,551.5C 233.923,552.738 234.089,553.738 234.5,554.5C 236.834,552.559 239.334,550.893 242,549.5C 242.249,550.624 242.749,551.624 243.5,552.5C 246.094,551.408 248.261,549.741 250,547.5C 250.692,548.025 251.192,548.692 251.5,549.5C 250.313,550.519 249.313,551.686 248.5,553C 249.742,553.311 250.742,552.811 251.5,551.5C 251.911,552.262 252.077,553.262 252,554.5C 254.089,554.255 256.089,554.255 258,554.5C 258.717,553.956 259.217,553.289 259.5,552.5 Z"/></g>
</svg>
